<svg class="main-svg" xmlns="http://www.w3.org/2000/svg" xmlns:xlink="http://www.w3.org/1999/xlink" width="700" height="500" style="" viewBox="0 0 700 500"><rect x="0" y="0" width="700" height="500" style="fill: rgb(255, 255, 255); fill-opacity: 1;"/><defs id="defs-bdfed9"><g class="clips"><clipPath id="clipbdfed9xyplot" class="plotclip"><rect width="99.36000000000001" height="360"/></clipPath><clipPath id="clipbdfed9x2y2plot" class="plotclip"><rect width="99.36" height="360"/></clipPath><clipPath id="clipbdfed9x3y3plot" class="plotclip"><rect width="99.36000000000003" height="360"/></clipPath><clipPath id="clipbdfed9x4y4plot" class="plotclip"><rect width="99.36000000000003" height="360"/></clipPath><clipPath id="clipbdfed9x5y5plot" class="plotclip"><rect width="99.35999999999997" height="360"/></clipPath><clipPath class="axesclip" id="clipbdfed9x"><rect x="80" y="0" width="99.36000000000001" height="500"/></clipPath><clipPath class="axesclip" id="clipbdfed9y"><rect x="0" y="60" width="700" height="360"/></clipPath><clipPath class="axesclip" id="clipbdfed9xy"><rect x="80" y="60" width="99.36000000000001" height="360"/></clipPath><clipPath class="axesclip" id="clipbdfed9y2"><rect x="0" y="60" width="700" height="360"/></clipPath><clipPath class="axesclip" id="clipbdfed9xy2"><rect x="80" y="60" width="99.36000000000001" height="360"/></clipPath><clipPath class="axesclip" id="clipbdfed9y3"><rect x="0" y="60" width="700" height="360"/></clipPath><clipPath class="axesclip" id="clipbdfed9xy3"><rect x="80" y="60" width="99.36000000000001" height="360"/></clipPath><clipPath class="axesclip" id="clipbdfed9y4"><rect x="0" y="60" width="700" height="360"/></clipPath><clipPath class="axesclip" id="clipbdfed9xy4"><rect x="80" y="60" width="99.36000000000001" height="360"/></clipPath><clipPath class="axesclip" id="clipbdfed9y5"><rect x="0" y="60" width="700" height="360"/></clipPath><clipPath class="axesclip" id="clipbdfed9xy5"><rect x="80" y="60" width="99.36000000000001" height="360"/></clipPath><clipPath class="axesclip" id="clipbdfed9x2"><rect x="190.16000000000003" y="0" width="99.36" height="500"/></clipPath><clipPath class="axesclip" id="clipbdfed9x2y"><rect x="190.16000000000003" y="60" width="99.36" height="360"/></clipPath><clipPath class="axesclip" id="clipbdfed9x2y2"><rect x="190.16000000000003" y="60" width="99.36" height="360"/></clipPath><clipPath class="axesclip" id="clipbdfed9x2y3"><rect x="190.16000000000003" y="60" width="99.36" height="360"/></clipPath><clipPath class="axesclip" id="clipbdfed9x2y4"><rect x="190.16000000000003" y="60" width="99.36" height="360"/></clipPath><clipPath class="axesclip" id="clipbdfed9x2y5"><rect x="190.16000000000003" y="60" width="99.36" height="360"/></clipPath><clipPath class="axesclip" id="clipbdfed9x3"><rect x="300.32000000000005" y="0" width="99.36000000000003" height="500"/></clipPath><clipPath class="axesclip" id="clipbdfed9x3y"><rect x="300.32000000000005" y="60" width="99.36000000000003" height="360"/></clipPath><clipPath class="axesclip" id="clipbdfed9x3y2"><rect x="300.32000000000005" y="60" width="99.36000000000003" height="360"/></clipPath><clipPath class="axesclip" id="clipbdfed9x3y3"><rect x="300.32000000000005" y="60" width="99.36000000000003" height="360"/></clipPath><clipPath class="axesclip" id="clipbdfed9x3y4"><rect x="300.32000000000005" y="60" width="99.36000000000003" height="360"/></clipPath><clipPath class="axesclip" id="clipbdfed9x3y5"><rect x="300.32000000000005" y="60" width="99.36000000000003" height="360"/></clipPath><clipPath class="axesclip" id="clipbdfed9x4"><rect x="410.4800000000001" y="0" width="99.36000000000003" height="500"/></clipPath><clipPath class="axesclip" id="clipbdfed9x4y"><rect x="410.4800000000001" y="60" width="99.36000000000003" height="360"/></clipPath><clipPath class="axesclip" id="clipbdfed9x4y2"><rect x="410.4800000000001" y="60" width="99.36000000000003" height="360"/></clipPath><clipPath class="axesclip" id="clipbdfed9x4y3"><rect x="410.4800000000001" y="60" width="99.36000000000003" height="360"/></clipPath><clipPath class="axesclip" id="clipbdfed9x4y4"><rect x="410.4800000000001" y="60" width="99.36000000000003" height="360"/></clipPath><clipPath class="axesclip" id="clipbdfed9x4y5"><rect x="410.4800000000001" y="60" width="99.36000000000003" height="360"/></clipPath><clipPath class="axesclip" id="clipbdfed9x5"><rect x="520.6400000000001" y="0" width="99.35999999999997" height="500"/></clipPath><clipPath class="axesclip" id="clipbdfed9x5y"><rect x="520.6400000000001" y="60" width="99.35999999999997" height="360"/></clipPath><clipPath class="axesclip" id="clipbdfed9x5y2"><rect x="520.6400000000001" y="60" width="99.35999999999997" height="360"/></clipPath><clipPath class="axesclip" id="clipbdfed9x5y3"><rect x="520.6400000000001" y="60" width="99.35999999999997" height="360"/></clipPath><clipPath class="axesclip" id="clipbdfed9x5y4"><rect x="520.6400000000001" y="60" width="99.35999999999997" height="360"/></clipPath><clipPath class="axesclip" id="clipbdfed9x5y5"><rect x="520.6400000000001" y="60" width="99.35999999999997" height="360"/></clipPath></g><g class="gradients"/><g class="patterns"/></defs><g class="bglayer"><rect class="bg" x="80" y="60" width="99.36000000000001" height="360" style="fill: rgb(229, 236, 246); fill-opacity: 1; stroke-width: 0;"/><rect class="bg" x="190.16000000000003" y="60" width="99.36" height="360" style="fill: rgb(229, 236, 246); fill-opacity: 1; stroke-width: 0;"/><rect class="bg" x="300.32000000000005" y="60" width="99.36000000000003" height="360" style="fill: rgb(229, 236, 246); fill-opacity: 1; stroke-width: 0;"/><rect class="bg" x="410.4800000000001" y="60" width="99.36000000000003" height="360" style="fill: rgb(229, 236, 246); fill-opacity: 1; stroke-width: 0;"/><rect class="bg" x="520.6400000000001" y="60" width="99.35999999999997" height="360" style="fill: rgb(229, 236, 246); fill-opacity: 1; stroke-width: 0;"/></g><g class="layer-below"><g class="imagelayer"/><g class="shapelayer"/></g><g class="cartesianlayer"><g class="subplot xy"><g class="layer-subplot"><g class="shapelayer"/><g class="imagelayer"/></g><g class="minor-gridlayer"><g class="x"/><g class="y"/></g><g class="gridlayer"><g class="x"><path class="xgrid crisp" transform="translate(88.61,0)" d="M0,60v360" style="stroke: rgb(255, 255, 255); stroke-opacity: 1; stroke-width: 1px;"/><path class="xgrid crisp" transform="translate(118.86,0)" d="M0,60v360" style="stroke: rgb(255, 255, 255); stroke-opacity: 1; stroke-width: 1px;"/><path class="xgrid crisp" transform="translate(149.11,0)" d="M0,60v360" style="stroke: rgb(255, 255, 255); stroke-opacity: 1; stroke-width: 1px;"/></g><g class="y"><path class="ygrid crisp" transform="translate(0,337.73)" d="M80,0h99.36000000000001" style="stroke: rgb(255, 255, 255); stroke-opacity: 1; stroke-width: 1px;"/><path class="ygrid crisp" transform="translate(0,273.47)" d="M80,0h99.36000000000001" style="stroke: rgb(255, 255, 255); stroke-opacity: 1; stroke-width: 1px;"/><path class="ygrid crisp" transform="translate(0,209.2)" d="M80,0h99.36000000000001" style="stroke: rgb(255, 255, 255); stroke-opacity: 1; stroke-width: 1px;"/><path class="ygrid crisp" transform="translate(0,144.93)" d="M80,0h99.36000000000001" style="stroke: rgb(255, 255, 255); stroke-opacity: 1; stroke-width: 1px;"/><path class="ygrid crisp" transform="translate(0,80.66)" d="M80,0h99.36000000000001" style="stroke: rgb(255, 255, 255); stroke-opacity: 1; stroke-width: 1px;"/></g></g><g class="zerolinelayer"><path class="xzl zl crisp" transform="translate(179.36,0)" d="M0,60v360" style="stroke: rgb(255, 255, 255); stroke-opacity: 1; stroke-width: 2px;"/><path class="yzl zl crisp" transform="translate(0,402)" d="M80,0h99.36000000000001" style="stroke: rgb(255, 255, 255); stroke-opacity: 1; stroke-width: 2px;"/></g><g class="layer-between"><g class="shapelayer"/><g class="imagelayer"/></g><path class="xlines-below"/><path class="ylines-below"/><g class="overlines-below"/><g class="xaxislayer-below"/><g class="yaxislayer-below"/><g class="overaxes-below"/><g class="overplot"><g class="xy" transform="translate(80,60)" clip-path="url(#clipbdfed9xyplot)"><g class="scatterlayer mlayer"><g class="trace scatter traced780d9" style="stroke-miterlimit: 2; opacity: 1;"><g class="fills"/><g class="errorbars"/><g class="lines"><path class="js-line" d="M99.36,342L98.52,163.28L98.31,155.12L97.05,101.69L95.79,105.73L93.27,91.94L92.01,93.57L90.75,94.3L89.49,98.14L88.23,97.21L86.97,99.03L85.71,94.42L84.45,97.35L83.19,95.5L81.92,98.79L80.66,92.71L79.4,90.68L78.14,90.85L76.88,89.55L75.62,90.45L74.36,88.78L73.1,92.81L71.84,90.96L69.32,87.81L68.06,89.81L66.8,85.94L65.54,86.47L64.28,87.75L63.02,87.36L60.5,86.23L59.24,87.5L57.98,83.95L56.72,73.72L54.2,68.12L52.94,65.01L51.68,62.39L50.42,66.97L47.89,81.35L46.63,84.47L41.59,118.25L40.33,132.6L34.03,206.87L32.77,220.52L31.51,235.57L30.25,261.37L26.47,327.13L25.21,334.84L22.69,338.74L21.43,338.56L18.91,338.68L17.65,338.46L15.12,338.59L13.86,338.31L10.08,337.08L8.82,335.35L3.78,322.04L2.52,312.41L1.26,310.93L0,315.37" style="vector-effect: none; fill: none; stroke: rgb(99, 110, 250); stroke-opacity: 1; stroke-width: 2px; opacity: 1;"/></g><g class="points"/><g class="text"/></g></g></g></g><path class="xlines-above crisp" d="M0,0" style="fill: none;"/><path class="ylines-above crisp" d="M0,0" style="fill: none;"/><g class="overlines-above"/><g class="xaxislayer-above"><g class="xtick"><text text-anchor="middle" x="0" y="433" transform="translate(88.61,0)" style="font-family: 'Open Sans', verdana, arial, sans-serif; font-size: 12px; fill: rgb(42, 63, 95); fill-opacity: 1; white-space: pre; opacity: 1;">−36</text></g><g class="xtick"><text text-anchor="middle" x="0" y="433" style="font-family: 'Open Sans', verdana, arial, sans-serif; font-size: 12px; fill: rgb(42, 63, 95); fill-opacity: 1; white-space: pre; opacity: 1;" transform="translate(118.86,0)">−24</text></g><g class="xtick"><text text-anchor="middle" x="0" y="433" style="font-family: 'Open Sans', verdana, arial, sans-serif; font-size: 12px; fill: rgb(42, 63, 95); fill-opacity: 1; white-space: pre; opacity: 1;" transform="translate(149.11,0)">−12</text></g><g class="xtick"><text text-anchor="middle" x="0" y="433" style="font-family: 'Open Sans', verdana, arial, sans-serif; font-size: 12px; fill: rgb(42, 63, 95); fill-opacity: 1; white-space: pre; opacity: 1;" transform="translate(179.36,0)">0</text></g></g><g class="yaxislayer-above"><g class="ytick"><text text-anchor="end" x="79" y="4.199999999999999" transform="translate(0,402)" style="font-family: 'Open Sans', verdana, arial, sans-serif; font-size: 12px; fill: rgb(42, 63, 95); fill-opacity: 1; white-space: pre; opacity: 1;">0%</text></g><g class="ytick"><text text-anchor="end" x="79" y="4.199999999999999" style="font-family: 'Open Sans', verdana, arial, sans-serif; font-size: 12px; fill: rgb(42, 63, 95); fill-opacity: 1; white-space: pre; opacity: 1;" transform="translate(0,337.73)">2%</text></g><g class="ytick"><text text-anchor="end" x="79" y="4.199999999999999" style="font-family: 'Open Sans', verdana, arial, sans-serif; font-size: 12px; fill: rgb(42, 63, 95); fill-opacity: 1; white-space: pre; opacity: 1;" transform="translate(0,273.47)">4%</text></g><g class="ytick"><text text-anchor="end" x="79" y="4.199999999999999" style="font-family: 'Open Sans', verdana, arial, sans-serif; font-size: 12px; fill: rgb(42, 63, 95); fill-opacity: 1; white-space: pre; opacity: 1;" transform="translate(0,209.2)">6%</text></g><g class="ytick"><text text-anchor="end" x="79" y="4.199999999999999" style="font-family: 'Open Sans', verdana, arial, sans-serif; font-size: 12px; fill: rgb(42, 63, 95); fill-opacity: 1; white-space: pre; opacity: 1;" transform="translate(0,144.93)">8%</text></g><g class="ytick"><text text-anchor="end" x="79" y="4.199999999999999" style="font-family: 'Open Sans', verdana, arial, sans-serif; font-size: 12px; fill: rgb(42, 63, 95); fill-opacity: 1; white-space: pre; opacity: 1;" transform="translate(0,80.66)">10%</text></g></g><g class="overaxes-above"/></g><g class="subplot x2y2"><g class="layer-subplot"><g class="shapelayer"/><g class="imagelayer"/></g><g class="minor-gridlayer"><g class="x2"/><g class="y2"/></g><g class="gridlayer"><g class="x2"><path class="x2grid crisp" transform="translate(198.77000000000004,0)" d="M0,60v360" style="stroke: rgb(255, 255, 255); stroke-opacity: 1; stroke-width: 1px;"/><path class="x2grid crisp" transform="translate(229.02000000000004,0)" d="M0,60v360" style="stroke: rgb(255, 255, 255); stroke-opacity: 1; stroke-width: 1px;"/><path class="x2grid crisp" transform="translate(259.27000000000004,0)" d="M0,60v360" style="stroke: rgb(255, 255, 255); stroke-opacity: 1; stroke-width: 1px;"/></g><g class="y2"><path class="y2grid crisp" transform="translate(0,337.73)" d="M190.16000000000003,0h99.36" style="stroke: rgb(255, 255, 255); stroke-opacity: 1; stroke-width: 1px;"/><path class="y2grid crisp" transform="translate(0,273.47)" d="M190.16000000000003,0h99.36" style="stroke: rgb(255, 255, 255); stroke-opacity: 1; stroke-width: 1px;"/><path class="y2grid crisp" transform="translate(0,209.2)" d="M190.16000000000003,0h99.36" style="stroke: rgb(255, 255, 255); stroke-opacity: 1; stroke-width: 1px;"/><path class="y2grid crisp" transform="translate(0,144.93)" d="M190.16000000000003,0h99.36" style="stroke: rgb(255, 255, 255); stroke-opacity: 1; stroke-width: 1px;"/><path class="y2grid crisp" transform="translate(0,80.66)" d="M190.16000000000003,0h99.36" style="stroke: rgb(255, 255, 255); stroke-opacity: 1; stroke-width: 1px;"/></g></g><g class="zerolinelayer"><path class="x2zl zl crisp" transform="translate(289.52000000000004,0)" d="M0,60v360" style="stroke: rgb(255, 255, 255); stroke-opacity: 1; stroke-width: 2px;"/><path class="y2zl zl crisp" transform="translate(0,402)" d="M190.16000000000003,0h99.36" style="stroke: rgb(255, 255, 255); stroke-opacity: 1; stroke-width: 2px;"/></g><g class="layer-between"><g class="shapelayer"/><g class="imagelayer"/></g><path class="xlines-below"/><path class="ylines-below"/><g class="overlines-below"/><g class="xaxislayer-below"/><g class="yaxislayer-below"/><g class="overaxes-below"/><g class="overplot"><g class="x2y2" transform="translate(190.16000000000003,60)" clip-path="url(#clipbdfed9x2y2plot)"><g class="scatterlayer mlayer"><g class="trace scatter trace7ba3a6" style="stroke-miterlimit: 2; opacity: 1;"><g class="fills"/><g class="errorbars"/><g class="lines"><path class="js-line" d="M99.36,342L98.52,175.63L98.31,169.18L97.05,119.12L95.79,111.42L94.53,107.01L93.27,96.71L90.75,91.54L89.49,92.63L88.23,88.21L86.97,87.82L84.45,85.41L83.19,83.19L81.92,84.28L80.66,80.4L79.4,85.17L78.14,84.78L76.88,85.87L75.62,85.67L74.36,84.92L73.1,77.93L71.84,82.69L70.58,82.49L69.32,82.29L68.06,85.4L66.8,86.12L65.54,89.42L64.28,89.4L63.02,91.96L61.76,90.66L60.5,87.7L59.24,92.65L57.98,88.09L55.46,76.18L54.2,71.93L52.94,71.99L51.68,75.85L50.42,79.89L49.15,86.56L45.37,114.49L44.11,119.68L42.85,125.17L41.59,137.22L36.55,183.48L35.29,201.78L31.51,250.53L30.25,275.87L26.47,341.2L25.21,341.58L7.56,340.73L6.3,340.52L2.52,339.04L1.26,337.56L0,342" style="vector-effect: none; fill: none; stroke: rgb(99, 110, 250); stroke-opacity: 1; stroke-width: 2px; opacity: 1;"/></g><g class="points"/><g class="text"/></g></g></g></g><path class="xlines-above crisp" d="M0,0" style="fill: none;"/><path class="ylines-above crisp" d="M0,0" style="fill: none;"/><g class="overlines-above"/><g class="xaxislayer-above"><g class="x2tick"><text text-anchor="middle" x="0" y="433" transform="translate(198.77000000000004,0)" style="font-family: 'Open Sans', verdana, arial, sans-serif; font-size: 12px; fill: rgb(42, 63, 95); fill-opacity: 1; white-space: pre; opacity: 1;">−36</text></g><g class="x2tick"><text text-anchor="middle" x="0" y="433" style="font-family: 'Open Sans', verdana, arial, sans-serif; font-size: 12px; fill: rgb(42, 63, 95); fill-opacity: 1; white-space: pre; opacity: 1;" transform="translate(229.02000000000004,0)">−24</text></g><g class="x2tick"><text text-anchor="middle" x="0" y="433" style="font-family: 'Open Sans', verdana, arial, sans-serif; font-size: 12px; fill: rgb(42, 63, 95); fill-opacity: 1; white-space: pre; opacity: 1;" transform="translate(259.27000000000004,0)">−12</text></g><g class="x2tick"><text text-anchor="middle" x="0" y="433" style="font-family: 'Open Sans', verdana, arial, sans-serif; font-size: 12px; fill: rgb(42, 63, 95); fill-opacity: 1; white-space: pre; opacity: 1;" transform="translate(289.52000000000004,0)">0</text></g></g><g class="yaxislayer-above"/><g class="overaxes-above"/></g><g class="subplot x3y3"><g class="layer-subplot"><g class="shapelayer"/><g class="imagelayer"/></g><g class="minor-gridlayer"><g class="x3"/><g class="y3"/></g><g class="gridlayer"><g class="x3"><path class="x3grid crisp" transform="translate(308.93000000000006,0)" d="M0,60v360" style="stroke: rgb(255, 255, 255); stroke-opacity: 1; stroke-width: 1px;"/><path class="x3grid crisp" transform="translate(339.18000000000006,0)" d="M0,60v360" style="stroke: rgb(255, 255, 255); stroke-opacity: 1; stroke-width: 1px;"/><path class="x3grid crisp" transform="translate(369.43000000000006,0)" d="M0,60v360" style="stroke: rgb(255, 255, 255); stroke-opacity: 1; stroke-width: 1px;"/></g><g class="y3"><path class="y3grid crisp" transform="translate(0,337.73)" d="M300.32000000000005,0h99.36000000000003" style="stroke: rgb(255, 255, 255); stroke-opacity: 1; stroke-width: 1px;"/><path class="y3grid crisp" transform="translate(0,273.47)" d="M300.32000000000005,0h99.36000000000003" style="stroke: rgb(255, 255, 255); stroke-opacity: 1; stroke-width: 1px;"/><path class="y3grid crisp" transform="translate(0,209.2)" d="M300.32000000000005,0h99.36000000000003" style="stroke: rgb(255, 255, 255); stroke-opacity: 1; stroke-width: 1px;"/><path class="y3grid crisp" transform="translate(0,144.93)" d="M300.32000000000005,0h99.36000000000003" style="stroke: rgb(255, 255, 255); stroke-opacity: 1; stroke-width: 1px;"/><path class="y3grid crisp" transform="translate(0,80.66)" d="M300.32000000000005,0h99.36000000000003" style="stroke: rgb(255, 255, 255); stroke-opacity: 1; stroke-width: 1px;"/></g></g><g class="zerolinelayer"><path class="x3zl zl crisp" transform="translate(399.68000000000006,0)" d="M0,60v360" style="stroke: rgb(255, 255, 255); stroke-opacity: 1; stroke-width: 2px;"/><path class="y3zl zl crisp" transform="translate(0,402)" d="M300.32000000000005,0h99.36000000000003" style="stroke: rgb(255, 255, 255); stroke-opacity: 1; stroke-width: 2px;"/></g><g class="layer-between"><g class="shapelayer"/><g class="imagelayer"/></g><path class="xlines-below"/><path class="ylines-below"/><g class="overlines-below"/><g class="xaxislayer-below"/><g class="yaxislayer-below"/><g class="overaxes-below"/><g class="overplot"><g class="x3y3" transform="translate(300.32000000000005,60)" clip-path="url(#clipbdfed9x3y3plot)"><g class="scatterlayer mlayer"><g class="trace scatter trace59181b" style="stroke-miterlimit: 2; opacity: 1;"><g class="fills"/><g class="errorbars"/><g class="lines"><path class="js-line" d="M99.36,342L98.52,154.32L98.31,144.36L97.05,82.71L95.79,87.19L94.53,92.69L93.27,87.71L92.01,84.58L90.75,77.4L89.49,76.1L88.23,77.19L85.71,74.04L84.45,72.37L83.19,74.37L81.92,78.58L79.4,72.86L78.14,73.58L76.88,75.95L75.62,73.18L74.36,75.18L73.1,71.86L71.84,69.82L70.58,71.65L69.32,69.61L68.06,70.14L66.8,67.56L65.54,69.93L63.02,70.45L61.76,70.8L59.24,65.44L57.98,65.55L55.46,54.99L54.2,52.26L52.94,50.85L51.68,47.47L50.42,46.94L49.15,50.58L41.59,77.97L40.33,78.5L35.29,103.94L34.03,115.63L32.77,121.64L31.51,137.3L28.99,159.26L27.73,174.76L26.47,190.05L25.21,195.44L23.95,204.02L22.69,202.79L20.17,197.83L18.91,199.31L13.86,175.98L12.6,170.5L11.34,157.72L10.08,157.84L8.82,156.95L7.56,148.21L6.3,152.8L5.04,136.17L1.26,75.7L0,84.58" style="vector-effect: none; fill: none; stroke: rgb(99, 110, 250); stroke-opacity: 1; stroke-width: 2px; opacity: 1;"/></g><g class="points"/><g class="text"/></g></g></g></g><path class="xlines-above crisp" d="M0,0" style="fill: none;"/><path class="ylines-above crisp" d="M0,0" style="fill: none;"/><g class="overlines-above"/><g class="xaxislayer-above"><g class="x3tick"><text text-anchor="middle" x="0" y="433" transform="translate(308.93000000000006,0)" style="font-family: 'Open Sans', verdana, arial, sans-serif; font-size: 12px; fill: rgb(42, 63, 95); fill-opacity: 1; white-space: pre; opacity: 1;">−36</text></g><g class="x3tick"><text text-anchor="middle" x="0" y="433" style="font-family: 'Open Sans', verdana, arial, sans-serif; font-size: 12px; fill: rgb(42, 63, 95); fill-opacity: 1; white-space: pre; opacity: 1;" transform="translate(339.18000000000006,0)">−24</text></g><g class="x3tick"><text text-anchor="middle" x="0" y="433" style="font-family: 'Open Sans', verdana, arial, sans-serif; font-size: 12px; fill: rgb(42, 63, 95); fill-opacity: 1; white-space: pre; opacity: 1;" transform="translate(369.43000000000006,0)">−12</text></g><g class="x3tick"><text text-anchor="middle" x="0" y="433" style="font-family: 'Open Sans', verdana, arial, sans-serif; font-size: 12px; fill: rgb(42, 63, 95); fill-opacity: 1; white-space: pre; opacity: 1;" transform="translate(399.68000000000006,0)">0</text></g></g><g class="yaxislayer-above"/><g class="overaxes-above"/></g><g class="subplot x4y4"><g class="layer-subplot"><g class="shapelayer"/><g class="imagelayer"/></g><g class="minor-gridlayer"><g class="x4"/><g class="y4"/></g><g class="gridlayer"><g class="x4"><path class="x4grid crisp" transform="translate(419.0900000000001,0)" d="M0,60v360" style="stroke: rgb(255, 255, 255); stroke-opacity: 1; stroke-width: 1px;"/><path class="x4grid crisp" transform="translate(449.3400000000001,0)" d="M0,60v360" style="stroke: rgb(255, 255, 255); stroke-opacity: 1; stroke-width: 1px;"/><path class="x4grid crisp" transform="translate(479.5900000000001,0)" d="M0,60v360" style="stroke: rgb(255, 255, 255); stroke-opacity: 1; stroke-width: 1px;"/></g><g class="y4"><path class="y4grid crisp" transform="translate(0,337.73)" d="M410.4800000000001,0h99.36000000000003" style="stroke: rgb(255, 255, 255); stroke-opacity: 1; stroke-width: 1px;"/><path class="y4grid crisp" transform="translate(0,273.47)" d="M410.4800000000001,0h99.36000000000003" style="stroke: rgb(255, 255, 255); stroke-opacity: 1; stroke-width: 1px;"/><path class="y4grid crisp" transform="translate(0,209.2)" d="M410.4800000000001,0h99.36000000000003" style="stroke: rgb(255, 255, 255); stroke-opacity: 1; stroke-width: 1px;"/><path class="y4grid crisp" transform="translate(0,144.93)" d="M410.4800000000001,0h99.36000000000003" style="stroke: rgb(255, 255, 255); stroke-opacity: 1; stroke-width: 1px;"/><path class="y4grid crisp" transform="translate(0,80.66)" d="M410.4800000000001,0h99.36000000000003" style="stroke: rgb(255, 255, 255); stroke-opacity: 1; stroke-width: 1px;"/></g></g><g class="zerolinelayer"><path class="x4zl zl crisp" transform="translate(509.8400000000001,0)" d="M0,60v360" style="stroke: rgb(255, 255, 255); stroke-opacity: 1; stroke-width: 2px;"/><path class="y4zl zl crisp" transform="translate(0,402)" d="M410.4800000000001,0h99.36000000000003" style="stroke: rgb(255, 255, 255); stroke-opacity: 1; stroke-width: 2px;"/></g><g class="layer-between"><g class="shapelayer"/><g class="imagelayer"/></g><path class="xlines-below"/><path class="ylines-below"/><g class="overlines-below"/><g class="xaxislayer-below"/><g class="yaxislayer-below"/><g class="overaxes-below"/><g class="overplot"><g class="x4y4" transform="translate(410.4800000000001,60)" clip-path="url(#clipbdfed9x4y4plot)"><g class="scatterlayer mlayer"><g class="trace scatter trace187ea6" style="stroke-miterlimit: 2; opacity: 1;"><g class="fills"/><g class="errorbars"/><g class="lines"><path class="js-line" d="M99.36,342L98.31,244.26L98.1,239.83L95.79,212.03L94.53,207.98L92.01,201.54L90.75,201.9L88.23,197.84L86.97,193.79L85.71,196.72L84.45,194.14L83.19,192.66L81.92,196.51L80.66,191.36L79.4,191.54L78.14,192.08L76.88,197.03L75.62,193.53L74.36,194.63L73.1,195.72L71.84,195.16L70.58,194.78L69.32,197.9L66.8,195.31L65.54,194.38L63.02,192.9L61.76,193.44L60.5,191.41L59.24,192.69L57.98,192.13L56.72,187.33L54.2,182.89L52.94,183.49L50.42,177.24L49.15,175.54L47.89,173.52L46.63,174.18L45.37,173.93L44.11,175.38L42.85,174.39L41.59,174.9L35.29,209.71L34.03,216.03L32.77,216.92L31.51,222.31L28.99,232.58L27.73,234.35L25.21,240.08L23.95,239.4L21.43,234.36L20.17,228.02L18.91,228.07L17.65,221.04L15.12,213.27L13.86,206.23L11.34,194.93L10.08,193.3L8.82,187.98L7.56,178.61L5.04,171.66L3.78,173.46L2.52,173.34L1.26,195.53L0,235.48" style="vector-effect: none; fill: none; stroke: rgb(99, 110, 250); stroke-opacity: 1; stroke-width: 2px; opacity: 1;"/></g><g class="points"/><g class="text"/></g></g></g></g><path class="xlines-above crisp" d="M0,0" style="fill: none;"/><path class="ylines-above crisp" d="M0,0" style="fill: none;"/><g class="overlines-above"/><g class="xaxislayer-above"><g class="x4tick"><text text-anchor="middle" x="0" y="433" transform="translate(419.0900000000001,0)" style="font-family: 'Open Sans', verdana, arial, sans-serif; font-size: 12px; fill: rgb(42, 63, 95); fill-opacity: 1; white-space: pre; opacity: 1;">−36</text></g><g class="x4tick"><text text-anchor="middle" x="0" y="433" style="font-family: 'Open Sans', verdana, arial, sans-serif; font-size: 12px; fill: rgb(42, 63, 95); fill-opacity: 1; white-space: pre; opacity: 1;" transform="translate(449.3400000000001,0)">−24</text></g><g class="x4tick"><text text-anchor="middle" x="0" y="433" style="font-family: 'Open Sans', verdana, arial, sans-serif; font-size: 12px; fill: rgb(42, 63, 95); fill-opacity: 1; white-space: pre; opacity: 1;" transform="translate(479.5900000000001,0)">−12</text></g><g class="x4tick"><text text-anchor="middle" x="0" y="433" style="font-family: 'Open Sans', verdana, arial, sans-serif; font-size: 12px; fill: rgb(42, 63, 95); fill-opacity: 1; white-space: pre; opacity: 1;" transform="translate(509.8400000000001,0)">0</text></g></g><g class="yaxislayer-above"/><g class="overaxes-above"/></g><g class="subplot x5y5"><g class="layer-subplot"><g class="shapelayer"/><g class="imagelayer"/></g><g class="minor-gridlayer"><g class="x5"/><g class="y5"/></g><g class="gridlayer"><g class="x5"><path class="x5grid crisp" transform="translate(529.2500000000001,0)" d="M0,60v360" style="stroke: rgb(255, 255, 255); stroke-opacity: 1; stroke-width: 1px;"/><path class="x5grid crisp" transform="translate(559.5000000000001,0)" d="M0,60v360" style="stroke: rgb(255, 255, 255); stroke-opacity: 1; stroke-width: 1px;"/><path class="x5grid crisp" transform="translate(589.7500000000001,0)" d="M0,60v360" style="stroke: rgb(255, 255, 255); stroke-opacity: 1; stroke-width: 1px;"/></g><g class="y5"><path class="y5grid crisp" transform="translate(0,337.73)" d="M520.6400000000001,0h99.35999999999997" style="stroke: rgb(255, 255, 255); stroke-opacity: 1; stroke-width: 1px;"/><path class="y5grid crisp" transform="translate(0,273.47)" d="M520.6400000000001,0h99.35999999999997" style="stroke: rgb(255, 255, 255); stroke-opacity: 1; stroke-width: 1px;"/><path class="y5grid crisp" transform="translate(0,209.2)" d="M520.6400000000001,0h99.35999999999997" style="stroke: rgb(255, 255, 255); stroke-opacity: 1; stroke-width: 1px;"/><path class="y5grid crisp" transform="translate(0,144.93)" d="M520.6400000000001,0h99.35999999999997" style="stroke: rgb(255, 255, 255); stroke-opacity: 1; stroke-width: 1px;"/><path class="y5grid crisp" transform="translate(0,80.66)" d="M520.6400000000001,0h99.35999999999997" style="stroke: rgb(255, 255, 255); stroke-opacity: 1; stroke-width: 1px;"/></g></g><g class="zerolinelayer"><path class="x5zl zl crisp" transform="translate(620.0000000000001,0)" d="M0,60v360" style="stroke: rgb(255, 255, 255); stroke-opacity: 1; stroke-width: 2px;"/><path class="y5zl zl crisp" transform="translate(0,402)" d="M520.6400000000001,0h99.35999999999997" style="stroke: rgb(255, 255, 255); stroke-opacity: 1; stroke-width: 2px;"/></g><g class="layer-between"><g class="shapelayer"/><g class="imagelayer"/></g><path class="xlines-below"/><path class="ylines-below"/><g class="overlines-below"/><g class="xaxislayer-below"/><g class="yaxislayer-below"/><g class="overaxes-below"/><g class="overplot"><g class="x5y5" transform="translate(520.6400000000001,60)" clip-path="url(#clipbdfed9x5y5plot)"><g class="scatterlayer mlayer"><g class="trace scatter tracebf9d5a" style="stroke-miterlimit: 2; opacity: 1;"><g class="fills"/><g class="errorbars"/><g class="lines"><path class="js-line" d="M99.36,342L98.52,133.69L98.31,122.5L97.05,58.01L95.79,64.61L94.53,69L93.27,63.85L92.01,55.93L90.75,57.02L89.49,58.29L88.23,53.31L86.97,57.15L85.71,54.2L83.19,50.49L81.92,52.13L79.4,48.24L78.14,45.47L76.88,45.82L75.62,41.57L74.36,40.45L73.1,41.54L71.84,38.58L70.58,37.65L68.06,40.37L66.8,39.25L65.54,39.6L64.28,37.56L63.02,39.38L61.76,36.42L60.5,38.98L59.24,34.36L57.98,37.38L56.72,25.17L54.2,25.58L52.94,28.26L51.68,23.29L50.42,27.55L49.15,27.4L47.89,31.99L46.63,34.96L45.37,40L44.11,37.72L42.85,45.15L39.07,57.53L37.81,67.42L35.29,85.65L34.03,98.27L32.77,102.98L31.51,115.87L30.25,126.27L28.99,144.16L26.47,163.93L25.21,169.33L23.95,177.04L22.69,171.6L20.17,162.96L18.91,160.04L17.65,150.24L16.38,147.25L13.86,125.07L12.6,119.78L11.34,106.34L10.08,103.68L8.82,107.09L7.56,101.35L6.3,99.59L5.04,81.17L2.52,37.23L1.26,18L0,31.32" style="vector-effect: none; fill: none; stroke: rgb(99, 110, 250); stroke-opacity: 1; stroke-width: 2px; opacity: 1;"/></g><g class="points"/><g class="text"/></g></g></g></g><path class="xlines-above crisp" d="M0,0" style="fill: none;"/><path class="ylines-above crisp" d="M0,0" style="fill: none;"/><g class="overlines-above"/><g class="xaxislayer-above"><g class="x5tick"><text text-anchor="middle" x="0" y="433" transform="translate(529.2500000000001,0)" style="font-family: 'Open Sans', verdana, arial, sans-serif; font-size: 12px; fill: rgb(42, 63, 95); fill-opacity: 1; white-space: pre; opacity: 1;">−36</text></g><g class="x5tick"><text text-anchor="middle" x="0" y="433" style="font-family: 'Open Sans', verdana, arial, sans-serif; font-size: 12px; fill: rgb(42, 63, 95); fill-opacity: 1; white-space: pre; opacity: 1;" transform="translate(559.5000000000001,0)">−24</text></g><g class="x5tick"><text text-anchor="middle" x="0" y="433" style="font-family: 'Open Sans', verdana, arial, sans-serif; font-size: 12px; fill: rgb(42, 63, 95); fill-opacity: 1; white-space: pre; opacity: 1;" transform="translate(589.7500000000001,0)">−12</text></g><g class="x5tick"><text text-anchor="middle" x="0" y="433" style="font-family: 'Open Sans', verdana, arial, sans-serif; font-size: 12px; fill: rgb(42, 63, 95); fill-opacity: 1; white-space: pre; opacity: 1;" transform="translate(620.0000000000001,0)">0</text></g></g><g class="yaxislayer-above"/><g class="overaxes-above"/></g></g><g class="polarlayer"/><g class="smithlayer"/><g class="ternarylayer"/><g class="geolayer"/><g class="funnelarealayer"/><g class="pielayer"/><g class="iciclelayer"/><g class="treemaplayer"/><g class="sunburstlayer"/><g class="glimages"/><defs id="topdefs-bdfed9"><g class="clips"/></defs><g class="layer-above"><g class="imagelayer"/><g class="shapelayer"/></g><g class="infolayer"><g class="g-gtitle"/><g class="g-xtitle"/><g class="g-x2title"/><g class="g-x3title"><text class="x3title" x="350.00000000000006" y="461.3" text-anchor="middle" style="opacity: 1; font-family: 'Open Sans', verdana, arial, sans-serif; font-size: 14px; fill: rgb(42, 63, 95); fill-opacity: 1; white-space: pre;">Prediction Distance (Intervals)</text></g><g class="g-x4title"/><g class="g-x5title"/><g class="g-ytitle"><text class="ytitle" transform="rotate(-90,35.990625,240)" x="35.990625" y="240" text-anchor="middle" style="opacity: 1; font-family: 'Open Sans', verdana, arial, sans-serif; font-size: 14px; fill: rgb(42, 63, 95); fill-opacity: 1; white-space: pre;">Incorrect Prediction</text></g><g class="g-y2title"/><g class="g-y3title"/><g class="g-y4title"/><g class="g-y5title"/><g class="annotation" data-index="0" style="opacity: 1;"><g class="annotation-text-g" transform="rotate(0,129.68,49.5)"><g class="cursor-pointer" transform="translate(111,39)"><rect class="bg" x="0.5" y="0.5" width="37" height="20" style="stroke-width: 1px; stroke: rgb(0, 0, 0); stroke-opacity: 0; fill: rgb(0, 0, 0); fill-opacity: 0;"/><text class="annotation-text" text-anchor="middle" x="18.8125" y="15" style="font-family: 'Open Sans', verdana, arial, sans-serif; font-size: 12px; fill: rgb(42, 63, 95); fill-opacity: 1; white-space: pre;">NSW1</text></g></g></g><g class="annotation" data-index="1" style="opacity: 1;"><g class="annotation-text-g" transform="rotate(0,239.84000000000003,49.5)"><g class="cursor-pointer" transform="translate(222,39)"><rect class="bg" x="0.5" y="0.5" width="34" height="20" style="stroke-width: 1px; stroke: rgb(0, 0, 0); stroke-opacity: 0; fill: rgb(0, 0, 0); fill-opacity: 0;"/><text class="annotation-text" text-anchor="middle" x="17.59375" y="15" style="font-family: 'Open Sans', verdana, arial, sans-serif; font-size: 12px; fill: rgb(42, 63, 95); fill-opacity: 1; white-space: pre;">QLD1</text></g></g></g><g class="annotation" data-index="2" style="opacity: 1;"><g class="annotation-text-g" transform="rotate(0,350,49.5)"><g class="cursor-pointer" transform="translate(338,39)"><rect class="bg" x="0.5" y="0.5" width="24" height="20" style="stroke-width: 1px; stroke: rgb(0, 0, 0); stroke-opacity: 0; fill: rgb(0, 0, 0); fill-opacity: 0;"/><text class="annotation-text" text-anchor="middle" x="12.53125" y="15" style="font-family: 'Open Sans', verdana, arial, sans-serif; font-size: 12px; fill: rgb(42, 63, 95); fill-opacity: 1; white-space: pre;">SA1</text></g></g></g><g class="annotation" data-index="3" style="opacity: 1;"><g class="annotation-text-g" transform="rotate(0,460.1600000000001,49.5)"><g class="cursor-pointer" transform="translate(444,39)"><rect class="bg" x="0.5" y="0.5" width="31" height="20" style="stroke-width: 1px; stroke: rgb(0, 0, 0); stroke-opacity: 0; fill: rgb(0, 0, 0); fill-opacity: 0;"/><text class="annotation-text" text-anchor="middle" x="15.84375" y="15" style="font-family: 'Open Sans', verdana, arial, sans-serif; font-size: 12px; fill: rgb(42, 63, 95); fill-opacity: 1; white-space: pre;">TAS1</text></g></g></g><g class="annotation" data-index="4" style="opacity: 1;"><g class="annotation-text-g" transform="rotate(0,570.3199999999999,49.5)"><g class="cursor-pointer" transform="translate(556,39)"><rect class="bg" x="0.5" y="0.5" width="28" height="20" style="stroke-width: 1px; stroke: rgb(0, 0, 0); stroke-opacity: 0; fill: rgb(0, 0, 0); fill-opacity: 0;"/><text class="annotation-text" text-anchor="middle" x="14.46875" y="15" style="font-family: 'Open Sans', verdana, arial, sans-serif; font-size: 12px; fill: rgb(42, 63, 95); fill-opacity: 1; white-space: pre;">VIC1</text></g></g></g></g></svg>