<svg class="main-svg" xmlns="http://www.w3.org/2000/svg" xmlns:xlink="http://www.w3.org/1999/xlink" width="800" height="500" style="" viewBox="0 0 800 500"><rect x="0" y="0" width="800" height="500" style="fill: rgb(255, 255, 255); fill-opacity: 1;"/><defs id="defs-cfa558"><g class="clips"><clipPath id="clipcfa558xyplot" class="plotclip"><rect width="117.76000000000002" height="276"/></clipPath><clipPath id="clipcfa558x2y2plot" class="plotclip"><rect width="117.75999999999999" height="276"/></clipPath><clipPath id="clipcfa558x3y3plot" class="plotclip"><rect width="117.76000000000003" height="276"/></clipPath><clipPath id="clipcfa558x4y4plot" class="plotclip"><rect width="117.76000000000003" height="276"/></clipPath><clipPath id="clipcfa558x5y5plot" class="plotclip"><rect width="117.75999999999996" height="276"/></clipPath><clipPath class="axesclip" id="clipcfa558x"><rect x="80" y="0" width="117.76000000000002" height="500"/></clipPath><clipPath class="axesclip" id="clipcfa558y"><rect x="0" y="100" width="800" height="276"/></clipPath><clipPath class="axesclip" id="clipcfa558xy"><rect x="80" y="100" width="117.76000000000002" height="276"/></clipPath><clipPath class="axesclip" id="clipcfa558y2"><rect x="0" y="100" width="800" height="276"/></clipPath><clipPath class="axesclip" id="clipcfa558xy2"><rect x="80" y="100" width="117.76000000000002" height="276"/></clipPath><clipPath class="axesclip" id="clipcfa558y3"><rect x="0" y="100" width="800" height="276"/></clipPath><clipPath class="axesclip" id="clipcfa558xy3"><rect x="80" y="100" width="117.76000000000002" height="276"/></clipPath><clipPath class="axesclip" id="clipcfa558y4"><rect x="0" y="100" width="800" height="276"/></clipPath><clipPath class="axesclip" id="clipcfa558xy4"><rect x="80" y="100" width="117.76000000000002" height="276"/></clipPath><clipPath class="axesclip" id="clipcfa558y5"><rect x="0" y="100" width="800" height="276"/></clipPath><clipPath class="axesclip" id="clipcfa558xy5"><rect x="80" y="100" width="117.76000000000002" height="276"/></clipPath><clipPath class="axesclip" id="clipcfa558x2"><rect x="210.56" y="0" width="117.75999999999999" height="500"/></clipPath><clipPath class="axesclip" id="clipcfa558x2y"><rect x="210.56" y="100" width="117.75999999999999" height="276"/></clipPath><clipPath class="axesclip" id="clipcfa558x2y2"><rect x="210.56" y="100" width="117.75999999999999" height="276"/></clipPath><clipPath class="axesclip" id="clipcfa558x2y3"><rect x="210.56" y="100" width="117.75999999999999" height="276"/></clipPath><clipPath class="axesclip" id="clipcfa558x2y4"><rect x="210.56" y="100" width="117.75999999999999" height="276"/></clipPath><clipPath class="axesclip" id="clipcfa558x2y5"><rect x="210.56" y="100" width="117.75999999999999" height="276"/></clipPath><clipPath class="axesclip" id="clipcfa558x3"><rect x="341.12" y="0" width="117.76000000000003" height="500"/></clipPath><clipPath class="axesclip" id="clipcfa558x3y"><rect x="341.12" y="100" width="117.76000000000003" height="276"/></clipPath><clipPath class="axesclip" id="clipcfa558x3y2"><rect x="341.12" y="100" width="117.76000000000003" height="276"/></clipPath><clipPath class="axesclip" id="clipcfa558x3y3"><rect x="341.12" y="100" width="117.76000000000003" height="276"/></clipPath><clipPath class="axesclip" id="clipcfa558x3y4"><rect x="341.12" y="100" width="117.76000000000003" height="276"/></clipPath><clipPath class="axesclip" id="clipcfa558x3y5"><rect x="341.12" y="100" width="117.76000000000003" height="276"/></clipPath><clipPath class="axesclip" id="clipcfa558x4"><rect x="471.68000000000006" y="0" width="117.76000000000003" height="500"/></clipPath><clipPath class="axesclip" id="clipcfa558x4y"><rect x="471.68000000000006" y="100" width="117.76000000000003" height="276"/></clipPath><clipPath class="axesclip" id="clipcfa558x4y2"><rect x="471.68000000000006" y="100" width="117.76000000000003" height="276"/></clipPath><clipPath class="axesclip" id="clipcfa558x4y3"><rect x="471.68000000000006" y="100" width="117.76000000000003" height="276"/></clipPath><clipPath class="axesclip" id="clipcfa558x4y4"><rect x="471.68000000000006" y="100" width="117.76000000000003" height="276"/></clipPath><clipPath class="axesclip" id="clipcfa558x4y5"><rect x="471.68000000000006" y="100" width="117.76000000000003" height="276"/></clipPath><clipPath class="axesclip" id="clipcfa558x5"><rect x="602.24" y="0" width="117.75999999999996" height="500"/></clipPath><clipPath class="axesclip" id="clipcfa558x5y"><rect x="602.24" y="100" width="117.75999999999996" height="276"/></clipPath><clipPath class="axesclip" id="clipcfa558x5y2"><rect x="602.24" y="100" width="117.75999999999996" height="276"/></clipPath><clipPath class="axesclip" id="clipcfa558x5y3"><rect x="602.24" y="100" width="117.75999999999996" height="276"/></clipPath><clipPath class="axesclip" id="clipcfa558x5y4"><rect x="602.24" y="100" width="117.75999999999996" height="276"/></clipPath><clipPath class="axesclip" id="clipcfa558x5y5"><rect x="602.24" y="100" width="117.75999999999996" height="276"/></clipPath></g><g class="gradients"/><g class="patterns"/></defs><g class="bglayer"><rect class="bg" x="80" y="100" width="117.76000000000002" height="276" style="fill: rgb(229, 236, 246); fill-opacity: 1; stroke-width: 0;"/><rect class="bg" x="210.56" y="100" width="117.75999999999999" height="276" style="fill: rgb(229, 236, 246); fill-opacity: 1; stroke-width: 0;"/><rect class="bg" x="341.12" y="100" width="117.76000000000003" height="276" style="fill: rgb(229, 236, 246); fill-opacity: 1; stroke-width: 0;"/><rect class="bg" x="471.68000000000006" y="100" width="117.76000000000003" height="276" style="fill: rgb(229, 236, 246); fill-opacity: 1; stroke-width: 0;"/><rect class="bg" x="602.24" y="100" width="117.75999999999996" height="276" style="fill: rgb(229, 236, 246); fill-opacity: 1; stroke-width: 0;"/></g><g class="layer-below"><g class="imagelayer"/><g class="shapelayer"/></g><g class="cartesianlayer"><g class="subplot xy"><g class="layer-subplot"><g class="shapelayer"/><g class="imagelayer"/></g><g class="minor-gridlayer"><g class="x"/><g class="y"/></g><g class="gridlayer"><g class="x"><path class="xgrid crisp" transform="translate(90.21000000000001,0)" d="M0,100v276" style="stroke: rgb(255, 255, 255); stroke-opacity: 1; stroke-width: 1px;"/><path class="xgrid crisp" transform="translate(126.06,0)" d="M0,100v276" style="stroke: rgb(255, 255, 255); stroke-opacity: 1; stroke-width: 1px;"/><path class="xgrid crisp" transform="translate(161.91,0)" d="M0,100v276" style="stroke: rgb(255, 255, 255); stroke-opacity: 1; stroke-width: 1px;"/></g><g class="y"><path class="ygrid crisp" transform="translate(0,312.52)" d="M80,0h117.76000000000002" style="stroke: rgb(255, 255, 255); stroke-opacity: 1; stroke-width: 1px;"/><path class="ygrid crisp" transform="translate(0,262.84000000000003)" d="M80,0h117.76000000000002" style="stroke: rgb(255, 255, 255); stroke-opacity: 1; stroke-width: 1px;"/><path class="ygrid crisp" transform="translate(0,213.16)" d="M80,0h117.76000000000002" style="stroke: rgb(255, 255, 255); stroke-opacity: 1; stroke-width: 1px;"/><path class="ygrid crisp" transform="translate(0,163.48)" d="M80,0h117.76000000000002" style="stroke: rgb(255, 255, 255); stroke-opacity: 1; stroke-width: 1px;"/><path class="ygrid crisp" transform="translate(0,113.8)" d="M80,0h117.76000000000002" style="stroke: rgb(255, 255, 255); stroke-opacity: 1; stroke-width: 1px;"/></g></g><g class="zerolinelayer"><path class="xzl zl crisp" transform="translate(197.76,0)" d="M0,100v276" style="stroke: rgb(255, 255, 255); stroke-opacity: 1; stroke-width: 2px;"/><path class="yzl zl crisp" transform="translate(0,362.2)" d="M80,0h117.76000000000002" style="stroke: rgb(255, 255, 255); stroke-opacity: 1; stroke-width: 2px;"/></g><g class="layer-between"><g class="shapelayer"/><g class="imagelayer"/></g><path class="xlines-below"/><path class="ylines-below"/><g class="overlines-below"/><g class="xaxislayer-below"/><g class="yaxislayer-below"/><g class="overaxes-below"/><g class="overplot"><g class="xy" transform="translate(80,100)" clip-path="url(#clipcfa558xyplot)"><g class="scatterlayer mlayer"><g class="trace scatter trace12cb12" style="stroke-miterlimit: 2; opacity: 1;"><g class="fills"/><g class="errorbars"/><g class="lines"><path class="js-line" d="M117.76,262.2L116.76,203.93L116.52,198.99L115.77,191.47L115.27,192.47L115.02,190.38L113.53,191.81L112.03,189.22L110.54,185.55L109.05,185.55L106.06,181.26L104.56,179.63L103.07,179.52L101.58,176.85L100.08,177.62L98.59,176.58L95.6,177.35L94.11,174.1L92.61,175.45L91.12,175.64L86.64,175.33L85.15,176.03L82.16,176.38L80.66,177.54L79.17,176.96L77.68,177.54L74.69,179.63L73.2,179.63L71.7,180.21L70.21,181.73L67.22,182.23L65.73,184.06L62.74,189.87L61.25,190.65L56.76,201.33L55.27,202.32L53.78,204.19L52.28,204.54L50.79,205.52L49.29,205.29L47.8,205.46L46.31,204.64L44.81,205.25L43.32,200.93L41.83,199.01L40.33,193.91L38.84,190.55L37.34,180.01L35.85,177.3L34.36,150.42L31.37,67.03L29.88,38.64L28.38,41.4L26.89,13.8L1.49,13.8" style="vector-effect: none; fill: none; stroke: rgb(99, 110, 250); stroke-opacity: 1; stroke-width: 2px; opacity: 1;"/></g><g class="points"/><g class="text"/></g><g class="trace scatter trace6fce8f" style="stroke-miterlimit: 2; opacity: 1;"><g class="fills"/><g class="errorbars"/><g class="lines"><path class="js-line" d="M117.76,262.2L117.51,253.48L117.01,254.47L116.76,254.5L116.02,253.74L115.77,253.28L115.27,250.87L115.02,250.95L113.53,251.2L109.05,251.01L107.55,251.46L103.07,252.33L101.58,252.3L97.1,252.62L95.6,252.07L92.61,252.17L91.12,252.02L83.65,252L82.16,251.76L73.2,251.25L71.7,251.09L67.22,250.11L65.73,249.86L58.26,247.93L56.76,247.83L52.28,248.08L50.79,248.29L44.81,250.82L43.32,251.55L37.34,255.05L35.85,256.66L31.37,261.39L29.88,261.94L17.93,262.2L16.43,262.2L5.98,261.51L4.48,261.17L1.49,260.14L0,260.14" style="vector-effect: none; fill: none; stroke: rgb(239, 85, 59); stroke-opacity: 1; stroke-width: 2px; opacity: 1;"/></g><g class="points"/><g class="text"/></g></g></g></g><path class="xlines-above crisp" d="M0,0" style="fill: none;"/><path class="ylines-above crisp" d="M0,0" style="fill: none;"/><g class="overlines-above"/><g class="xaxislayer-above"><g class="xtick"><text text-anchor="middle" x="0" y="389" transform="translate(90.21000000000001,0)" style="font-family: 'Open Sans', verdana, arial, sans-serif; font-size: 12px; fill: rgb(42, 63, 95); fill-opacity: 1; white-space: pre; opacity: 1;">−36</text></g><g class="xtick"><text text-anchor="middle" x="0" y="389" style="font-family: 'Open Sans', verdana, arial, sans-serif; font-size: 12px; fill: rgb(42, 63, 95); fill-opacity: 1; white-space: pre; opacity: 1;" transform="translate(126.06,0)">−24</text></g><g class="xtick"><text text-anchor="middle" x="0" y="389" style="font-family: 'Open Sans', verdana, arial, sans-serif; font-size: 12px; fill: rgb(42, 63, 95); fill-opacity: 1; white-space: pre; opacity: 1;" transform="translate(161.91,0)">−12</text></g><g class="xtick"><text text-anchor="middle" x="0" y="389" style="font-family: 'Open Sans', verdana, arial, sans-serif; font-size: 12px; fill: rgb(42, 63, 95); fill-opacity: 1; white-space: pre; opacity: 1;" transform="translate(197.76,0)">0</text></g></g><g class="yaxislayer-above"><g class="ytick"><text text-anchor="end" x="79" y="4.199999999999999" transform="translate(0,362.2)" style="font-family: 'Open Sans', verdana, arial, sans-serif; font-size: 12px; fill: rgb(42, 63, 95); fill-opacity: 1; white-space: pre; opacity: 1;">0%</text></g><g class="ytick"><text text-anchor="end" x="79" y="4.199999999999999" style="font-family: 'Open Sans', verdana, arial, sans-serif; font-size: 12px; fill: rgb(42, 63, 95); fill-opacity: 1; white-space: pre; opacity: 1;" transform="translate(0,312.52)">20%</text></g><g class="ytick"><text text-anchor="end" x="79" y="4.199999999999999" style="font-family: 'Open Sans', verdana, arial, sans-serif; font-size: 12px; fill: rgb(42, 63, 95); fill-opacity: 1; white-space: pre; opacity: 1;" transform="translate(0,262.84000000000003)">40%</text></g><g class="ytick"><text text-anchor="end" x="79" y="4.199999999999999" style="font-family: 'Open Sans', verdana, arial, sans-serif; font-size: 12px; fill: rgb(42, 63, 95); fill-opacity: 1; white-space: pre; opacity: 1;" transform="translate(0,213.16)">60%</text></g><g class="ytick"><text text-anchor="end" x="79" y="4.199999999999999" style="font-family: 'Open Sans', verdana, arial, sans-serif; font-size: 12px; fill: rgb(42, 63, 95); fill-opacity: 1; white-space: pre; opacity: 1;" transform="translate(0,163.48)">80%</text></g><g class="ytick"><text text-anchor="end" x="79" y="4.199999999999999" style="font-family: 'Open Sans', verdana, arial, sans-serif; font-size: 12px; fill: rgb(42, 63, 95); fill-opacity: 1; white-space: pre; opacity: 1;" transform="translate(0,113.8)">100%</text></g></g><g class="overaxes-above"/></g><g class="subplot x2y2"><g class="layer-subplot"><g class="shapelayer"/><g class="imagelayer"/></g><g class="minor-gridlayer"><g class="x2"/><g class="y2"/></g><g class="gridlayer"><g class="x2"><path class="x2grid crisp" transform="translate(220.77,0)" d="M0,100v276" style="stroke: rgb(255, 255, 255); stroke-opacity: 1; stroke-width: 1px;"/><path class="x2grid crisp" transform="translate(256.62,0)" d="M0,100v276" style="stroke: rgb(255, 255, 255); stroke-opacity: 1; stroke-width: 1px;"/><path class="x2grid crisp" transform="translate(292.47,0)" d="M0,100v276" style="stroke: rgb(255, 255, 255); stroke-opacity: 1; stroke-width: 1px;"/></g><g class="y2"><path class="y2grid crisp" transform="translate(0,312.52)" d="M210.56,0h117.75999999999999" style="stroke: rgb(255, 255, 255); stroke-opacity: 1; stroke-width: 1px;"/><path class="y2grid crisp" transform="translate(0,262.84000000000003)" d="M210.56,0h117.75999999999999" style="stroke: rgb(255, 255, 255); stroke-opacity: 1; stroke-width: 1px;"/><path class="y2grid crisp" transform="translate(0,213.16)" d="M210.56,0h117.75999999999999" style="stroke: rgb(255, 255, 255); stroke-opacity: 1; stroke-width: 1px;"/><path class="y2grid crisp" transform="translate(0,163.48)" d="M210.56,0h117.75999999999999" style="stroke: rgb(255, 255, 255); stroke-opacity: 1; stroke-width: 1px;"/><path class="y2grid crisp" transform="translate(0,113.8)" d="M210.56,0h117.75999999999999" style="stroke: rgb(255, 255, 255); stroke-opacity: 1; stroke-width: 1px;"/></g></g><g class="zerolinelayer"><path class="x2zl zl crisp" transform="translate(328.32,0)" d="M0,100v276" style="stroke: rgb(255, 255, 255); stroke-opacity: 1; stroke-width: 2px;"/><path class="y2zl zl crisp" transform="translate(0,362.2)" d="M210.56,0h117.75999999999999" style="stroke: rgb(255, 255, 255); stroke-opacity: 1; stroke-width: 2px;"/></g><g class="layer-between"><g class="shapelayer"/><g class="imagelayer"/></g><path class="xlines-below"/><path class="ylines-below"/><g class="overlines-below"/><g class="xaxislayer-below"/><g class="yaxislayer-below"/><g class="overaxes-below"/><g class="overplot"><g class="x2y2" transform="translate(210.56,100)" clip-path="url(#clipcfa558x2y2plot)"><g class="scatterlayer mlayer"><g class="trace scatter tracee55e4b" style="stroke-miterlimit: 2; opacity: 1;"><g class="fills"/><g class="errorbars"/><g class="lines"><path class="js-line" d="M117.76,262.2L116.76,217.09L116.52,215.36L115.02,209.2L113.53,208.63L112.03,208.78L110.54,207.5L109.05,207.25L107.55,205L106.06,204.29L104.56,202.2L100.08,200.52L98.59,200.43L95.6,199.7L94.11,201.29L89.63,201.78L88.13,201.61L86.64,193.73L85.15,199.5L83.65,197.03L82.16,199.19L80.66,198.88L79.17,200.51L76.18,203.13L74.69,204.37L71.7,205.29L70.21,207.45L64.23,211.07L62.74,213.34L56.76,226.69L55.27,228.91L53.78,231.44L52.28,232.4L47.8,232.53L46.31,232.48L44.81,232.36L43.32,229.24L41.83,229.76L40.33,223.21L38.84,219.51L37.34,211.8L34.36,155.74L32.86,13.8L1.49,13.8" style="vector-effect: none; fill: none; stroke: rgb(99, 110, 250); stroke-opacity: 1; stroke-width: 2px; opacity: 1;"/></g><g class="points"/><g class="text"/></g><g class="trace scatter tracef66955" style="stroke-miterlimit: 2; opacity: 1;"><g class="fills"/><g class="errorbars"/><g class="lines"><path class="js-line" d="M117.76,262.2L116.76,256.61L116.52,256.39L115.02,253.04L113.53,252.47L109.05,251.13L107.55,251.41L101.58,251.96L100.08,251.82L92.61,251.55L91.12,251.49L88.13,251.51L86.64,252.62L85.15,251.77L83.65,252.31L82.16,251.81L80.66,252.17L71.7,250.95L70.21,250.93L56.76,247.19L55.27,247.15L50.79,247.59L49.29,248.46L43.32,251.47L41.83,252.57L37.34,255.77L35.85,257.52L31.37,262.17L29.88,262.2L0,262.2" style="vector-effect: none; fill: none; stroke: rgb(239, 85, 59); stroke-opacity: 1; stroke-width: 2px; opacity: 1;"/></g><g class="points"/><g class="text"/></g></g></g></g><path class="xlines-above crisp" d="M0,0" style="fill: none;"/><path class="ylines-above crisp" d="M0,0" style="fill: none;"/><g class="overlines-above"/><g class="xaxislayer-above"><g class="x2tick"><text text-anchor="middle" x="0" y="389" transform="translate(220.77,0)" style="font-family: 'Open Sans', verdana, arial, sans-serif; font-size: 12px; fill: rgb(42, 63, 95); fill-opacity: 1; white-space: pre; opacity: 1;">−36</text></g><g class="x2tick"><text text-anchor="middle" x="0" y="389" style="font-family: 'Open Sans', verdana, arial, sans-serif; font-size: 12px; fill: rgb(42, 63, 95); fill-opacity: 1; white-space: pre; opacity: 1;" transform="translate(256.62,0)">−24</text></g><g class="x2tick"><text text-anchor="middle" x="0" y="389" style="font-family: 'Open Sans', verdana, arial, sans-serif; font-size: 12px; fill: rgb(42, 63, 95); fill-opacity: 1; white-space: pre; opacity: 1;" transform="translate(292.47,0)">−12</text></g><g class="x2tick"><text text-anchor="middle" x="0" y="389" style="font-family: 'Open Sans', verdana, arial, sans-serif; font-size: 12px; fill: rgb(42, 63, 95); fill-opacity: 1; white-space: pre; opacity: 1;" transform="translate(328.32,0)">0</text></g></g><g class="yaxislayer-above"/><g class="overaxes-above"/></g><g class="subplot x3y3"><g class="layer-subplot"><g class="shapelayer"/><g class="imagelayer"/></g><g class="minor-gridlayer"><g class="x3"/><g class="y3"/></g><g class="gridlayer"><g class="x3"><path class="x3grid crisp" transform="translate(351.33,0)" d="M0,100v276" style="stroke: rgb(255, 255, 255); stroke-opacity: 1; stroke-width: 1px;"/><path class="x3grid crisp" transform="translate(387.18,0)" d="M0,100v276" style="stroke: rgb(255, 255, 255); stroke-opacity: 1; stroke-width: 1px;"/><path class="x3grid crisp" transform="translate(423.03,0)" d="M0,100v276" style="stroke: rgb(255, 255, 255); stroke-opacity: 1; stroke-width: 1px;"/></g><g class="y3"><path class="y3grid crisp" transform="translate(0,312.52)" d="M341.12,0h117.76000000000003" style="stroke: rgb(255, 255, 255); stroke-opacity: 1; stroke-width: 1px;"/><path class="y3grid crisp" transform="translate(0,262.84000000000003)" d="M341.12,0h117.76000000000003" style="stroke: rgb(255, 255, 255); stroke-opacity: 1; stroke-width: 1px;"/><path class="y3grid crisp" transform="translate(0,213.16)" d="M341.12,0h117.76000000000003" style="stroke: rgb(255, 255, 255); stroke-opacity: 1; stroke-width: 1px;"/><path class="y3grid crisp" transform="translate(0,163.48)" d="M341.12,0h117.76000000000003" style="stroke: rgb(255, 255, 255); stroke-opacity: 1; stroke-width: 1px;"/><path class="y3grid crisp" transform="translate(0,113.8)" d="M341.12,0h117.76000000000003" style="stroke: rgb(255, 255, 255); stroke-opacity: 1; stroke-width: 1px;"/></g></g><g class="zerolinelayer"><path class="x3zl zl crisp" transform="translate(458.88,0)" d="M0,100v276" style="stroke: rgb(255, 255, 255); stroke-opacity: 1; stroke-width: 2px;"/><path class="y3zl zl crisp" transform="translate(0,362.2)" d="M341.12,0h117.76000000000003" style="stroke: rgb(255, 255, 255); stroke-opacity: 1; stroke-width: 2px;"/></g><g class="layer-between"><g class="shapelayer"/><g class="imagelayer"/></g><path class="xlines-below"/><path class="ylines-below"/><g class="overlines-below"/><g class="xaxislayer-below"/><g class="yaxislayer-below"/><g class="overaxes-below"/><g class="overplot"><g class="x3y3" transform="translate(341.12,100)" clip-path="url(#clipcfa558x3y3plot)"><g class="scatterlayer mlayer"><g class="trace scatter trace5035ad" style="stroke-miterlimit: 2; opacity: 1;"><g class="fills"/><g class="errorbars"/><g class="lines"><path class="js-line" d="M117.76,262.2L116.76,226.8L116.52,224.62L115.02,214.61L113.53,218.88L112.03,220.74L110.54,220.19L109.05,220.99L107.55,219.85L100.08,219.77L98.59,219.76L97.1,221.11L95.6,220.85L94.11,219.33L92.61,220.28L91.12,221.33L89.63,221.17L88.13,222.47L86.64,222.66L76.18,225.63L74.69,225.07L67.22,225.26L65.73,225.55L64.23,225.47L62.74,226.55L61.25,226.44L59.75,227.43L56.76,229.96L55.27,230.88L52.28,231.69L50.79,231.23L49.29,231.25L47.8,228.86L46.31,227.63L44.81,228.01L43.32,224.25L41.83,222.83L37.34,214.31L35.85,209.24L29.88,193.88L28.38,193.91L25.39,190.91L23.9,190.13L22.41,193.42L20.91,193.36L17.93,195.62L16.43,195.51L14.94,196.21L13.44,194.18L11.95,195.09L10.46,198.61L8.96,200.6L7.47,205.64L5.98,206.6L4.48,204.46L2.99,202.99L1.49,205.05L0,203.49" style="vector-effect: none; fill: none; stroke: rgb(99, 110, 250); stroke-opacity: 1; stroke-width: 2px; opacity: 1;"/></g><g class="points"/><g class="text"/></g><g class="trace scatter trace157a92" style="stroke-miterlimit: 2; opacity: 1;"><g class="fills"/><g class="errorbars"/><g class="lines"><path class="js-line" d="M117.76,262.2L116.76,255.88L116.52,255.66L115.52,254.37L115.27,253.16L113.53,251.81L112.03,251.67L104.56,250.32L103.07,250.36L95.6,249.75L94.11,250.08L76.18,247.27L74.69,247.55L70.21,247.07L68.71,246.98L64.23,245.81L62.74,245.27L55.27,244.24L53.78,244.53L47.8,246.13L46.31,246.84L44.81,247.03L43.32,248.22L38.84,250.95L37.34,252.17L29.88,257.07L28.38,257.7L20.91,258.03L19.42,257.49L14.94,256.97L13.44,256.41L10.46,256.2L8.96,255.31L7.47,254.95L5.98,253.46L1.49,248.38L0,249.25" style="vector-effect: none; fill: none; stroke: rgb(239, 85, 59); stroke-opacity: 1; stroke-width: 2px; opacity: 1;"/></g><g class="points"/><g class="text"/></g></g></g></g><path class="xlines-above crisp" d="M0,0" style="fill: none;"/><path class="ylines-above crisp" d="M0,0" style="fill: none;"/><g class="overlines-above"/><g class="xaxislayer-above"><g class="x3tick"><text text-anchor="middle" x="0" y="389" transform="translate(351.33,0)" style="font-family: 'Open Sans', verdana, arial, sans-serif; font-size: 12px; fill: rgb(42, 63, 95); fill-opacity: 1; white-space: pre; opacity: 1;">−36</text></g><g class="x3tick"><text text-anchor="middle" x="0" y="389" style="font-family: 'Open Sans', verdana, arial, sans-serif; font-size: 12px; fill: rgb(42, 63, 95); fill-opacity: 1; white-space: pre; opacity: 1;" transform="translate(387.18,0)">−24</text></g><g class="x3tick"><text text-anchor="middle" x="0" y="389" style="font-family: 'Open Sans', verdana, arial, sans-serif; font-size: 12px; fill: rgb(42, 63, 95); fill-opacity: 1; white-space: pre; opacity: 1;" transform="translate(423.03,0)">−12</text></g><g class="x3tick"><text text-anchor="middle" x="0" y="389" style="font-family: 'Open Sans', verdana, arial, sans-serif; font-size: 12px; fill: rgb(42, 63, 95); fill-opacity: 1; white-space: pre; opacity: 1;" transform="translate(458.88,0)">0</text></g></g><g class="yaxislayer-above"/><g class="overaxes-above"/></g><g class="subplot x4y4"><g class="layer-subplot"><g class="shapelayer"/><g class="imagelayer"/></g><g class="minor-gridlayer"><g class="x4"/><g class="y4"/></g><g class="gridlayer"><g class="x4"><path class="x4grid crisp" transform="translate(481.89000000000004,0)" d="M0,100v276" style="stroke: rgb(255, 255, 255); stroke-opacity: 1; stroke-width: 1px;"/><path class="x4grid crisp" transform="translate(517.74,0)" d="M0,100v276" style="stroke: rgb(255, 255, 255); stroke-opacity: 1; stroke-width: 1px;"/><path class="x4grid crisp" transform="translate(553.59,0)" d="M0,100v276" style="stroke: rgb(255, 255, 255); stroke-opacity: 1; stroke-width: 1px;"/></g><g class="y4"><path class="y4grid crisp" transform="translate(0,312.52)" d="M471.68000000000006,0h117.76000000000003" style="stroke: rgb(255, 255, 255); stroke-opacity: 1; stroke-width: 1px;"/><path class="y4grid crisp" transform="translate(0,262.84000000000003)" d="M471.68000000000006,0h117.76000000000003" style="stroke: rgb(255, 255, 255); stroke-opacity: 1; stroke-width: 1px;"/><path class="y4grid crisp" transform="translate(0,213.16)" d="M471.68000000000006,0h117.76000000000003" style="stroke: rgb(255, 255, 255); stroke-opacity: 1; stroke-width: 1px;"/><path class="y4grid crisp" transform="translate(0,163.48)" d="M471.68000000000006,0h117.76000000000003" style="stroke: rgb(255, 255, 255); stroke-opacity: 1; stroke-width: 1px;"/><path class="y4grid crisp" transform="translate(0,113.8)" d="M471.68000000000006,0h117.76000000000003" style="stroke: rgb(255, 255, 255); stroke-opacity: 1; stroke-width: 1px;"/></g></g><g class="zerolinelayer"><path class="x4zl zl crisp" transform="translate(589.44,0)" d="M0,100v276" style="stroke: rgb(255, 255, 255); stroke-opacity: 1; stroke-width: 2px;"/><path class="y4zl zl crisp" transform="translate(0,362.2)" d="M471.68000000000006,0h117.76000000000003" style="stroke: rgb(255, 255, 255); stroke-opacity: 1; stroke-width: 2px;"/></g><g class="layer-between"><g class="shapelayer"/><g class="imagelayer"/></g><path class="xlines-below"/><path class="ylines-below"/><g class="overlines-below"/><g class="xaxislayer-below"/><g class="yaxislayer-below"/><g class="overaxes-below"/><g class="overplot"><g class="x4y4" transform="translate(471.68000000000006,100)" clip-path="url(#clipcfa558x4y4plot)"><g class="scatterlayer mlayer"><g class="trace scatter trace2aa890" style="stroke-miterlimit: 2; opacity: 1;"><g class="fills"/><g class="errorbars"/><g class="lines"><path class="js-line" d="M117.76,262.2L116.76,157.79L116.52,153.11L113.53,105.02L112.03,99.44L110.54,95.18L109.05,95.18L107.55,97.15L106.06,93.54L104.56,93.54L103.07,88.94L101.58,90.91L100.08,90.26L98.59,86.97L97.1,91.57L94.11,88.94L92.61,90.03L91.12,92.33L89.63,87.07L88.13,87.4L86.64,85.1L85.15,81.9L83.65,80.83L82.16,78.94L80.66,74.34L79.17,74.01L77.68,71.55L76.18,70.31L74.69,67.94L71.7,65.71L70.21,69.66L68.71,68.33L67.22,68.66L65.73,68.24L64.23,70.68L62.74,71.36L61.25,70.77L59.75,69.88L58.26,71.04L56.76,69.62L55.27,74.07L52.28,73.48L50.79,74.91L49.29,76.13L47.8,78.38L44.81,88.79L43.32,90.87L40.33,86.77L38.84,82.09L37.34,85.73L35.85,86.43L34.36,86.2L32.86,87.06L31.37,87.97L29.88,91.73L28.38,91.58L26.89,92.78L25.39,92.72L23.9,95.29L22.41,96.6L20.91,94.33L19.42,95.2L17.93,95.15L16.43,92.08L14.94,91.33L13.44,83.28L11.95,81.04L10.46,76.44L8.96,64.94L7.47,58.69L5.98,64.94L4.48,63.48L2.99,52.02L1.49,38.64L0,106.95" style="vector-effect: none; fill: none; stroke: rgb(99, 110, 250); stroke-opacity: 1; stroke-width: 2px; opacity: 1;"/></g><g class="points"/><g class="text"/></g><g class="trace scatter trace14b1fd" style="stroke-miterlimit: 2; opacity: 1;"><g class="fills"/><g class="errorbars"/><g class="lines"><path class="js-line" d="M117.76,262.2L116.76,259.23L116.52,259.03L115.02,258.26L113.53,258.8L89.63,258.12L88.13,258.19L77.68,258.9L76.18,258.87L68.71,258.94L67.22,258.62L44.81,257.3L43.32,257.62L32.86,258.32L31.37,258.66L25.39,258.76L23.9,258.38L19.42,258.25L17.93,258.16L7.47,256.85L5.98,256.21L0,257.29" style="vector-effect: none; fill: none; stroke: rgb(239, 85, 59); stroke-opacity: 1; stroke-width: 2px; opacity: 1;"/></g><g class="points"/><g class="text"/></g></g></g></g><path class="xlines-above crisp" d="M0,0" style="fill: none;"/><path class="ylines-above crisp" d="M0,0" style="fill: none;"/><g class="overlines-above"/><g class="xaxislayer-above"><g class="x4tick"><text text-anchor="middle" x="0" y="389" transform="translate(481.89000000000004,0)" style="font-family: 'Open Sans', verdana, arial, sans-serif; font-size: 12px; fill: rgb(42, 63, 95); fill-opacity: 1; white-space: pre; opacity: 1;">−36</text></g><g class="x4tick"><text text-anchor="middle" x="0" y="389" style="font-family: 'Open Sans', verdana, arial, sans-serif; font-size: 12px; fill: rgb(42, 63, 95); fill-opacity: 1; white-space: pre; opacity: 1;" transform="translate(517.74,0)">−24</text></g><g class="x4tick"><text text-anchor="middle" x="0" y="389" style="font-family: 'Open Sans', verdana, arial, sans-serif; font-size: 12px; fill: rgb(42, 63, 95); fill-opacity: 1; white-space: pre; opacity: 1;" transform="translate(553.59,0)">−12</text></g><g class="x4tick"><text text-anchor="middle" x="0" y="389" style="font-family: 'Open Sans', verdana, arial, sans-serif; font-size: 12px; fill: rgb(42, 63, 95); fill-opacity: 1; white-space: pre; opacity: 1;" transform="translate(589.44,0)">0</text></g></g><g class="yaxislayer-above"/><g class="overaxes-above"/></g><g class="subplot x5y5"><g class="layer-subplot"><g class="shapelayer"/><g class="imagelayer"/></g><g class="minor-gridlayer"><g class="x5"/><g class="y5"/></g><g class="gridlayer"><g class="x5"><path class="x5grid crisp" transform="translate(612.45,0)" d="M0,100v276" style="stroke: rgb(255, 255, 255); stroke-opacity: 1; stroke-width: 1px;"/><path class="x5grid crisp" transform="translate(648.3,0)" d="M0,100v276" style="stroke: rgb(255, 255, 255); stroke-opacity: 1; stroke-width: 1px;"/><path class="x5grid crisp" transform="translate(684.15,0)" d="M0,100v276" style="stroke: rgb(255, 255, 255); stroke-opacity: 1; stroke-width: 1px;"/></g><g class="y5"><path class="y5grid crisp" transform="translate(0,312.52)" d="M602.24,0h117.75999999999996" style="stroke: rgb(255, 255, 255); stroke-opacity: 1; stroke-width: 1px;"/><path class="y5grid crisp" transform="translate(0,262.84000000000003)" d="M602.24,0h117.75999999999996" style="stroke: rgb(255, 255, 255); stroke-opacity: 1; stroke-width: 1px;"/><path class="y5grid crisp" transform="translate(0,213.16)" d="M602.24,0h117.75999999999996" style="stroke: rgb(255, 255, 255); stroke-opacity: 1; stroke-width: 1px;"/><path class="y5grid crisp" transform="translate(0,163.48)" d="M602.24,0h117.75999999999996" style="stroke: rgb(255, 255, 255); stroke-opacity: 1; stroke-width: 1px;"/><path class="y5grid crisp" transform="translate(0,113.8)" d="M602.24,0h117.75999999999996" style="stroke: rgb(255, 255, 255); stroke-opacity: 1; stroke-width: 1px;"/></g></g><g class="zerolinelayer"><path class="x5zl zl crisp" transform="translate(720,0)" d="M0,100v276" style="stroke: rgb(255, 255, 255); stroke-opacity: 1; stroke-width: 2px;"/><path class="y5zl zl crisp" transform="translate(0,362.2)" d="M602.24,0h117.75999999999996" style="stroke: rgb(255, 255, 255); stroke-opacity: 1; stroke-width: 2px;"/></g><g class="layer-between"><g class="shapelayer"/><g class="imagelayer"/></g><path class="xlines-below"/><path class="ylines-below"/><g class="overlines-below"/><g class="xaxislayer-below"/><g class="yaxislayer-below"/><g class="overaxes-below"/><g class="overplot"><g class="x5y5" transform="translate(602.24,100)" clip-path="url(#clipcfa558x5y5plot)"><g class="scatterlayer mlayer"><g class="trace scatter traceeb84c1" style="stroke-miterlimit: 2; opacity: 1;"><g class="fills"/><g class="errorbars"/><g class="lines"><path class="js-line" d="M117.76,262.2L116.76,224.68L116.52,221.47L115.02,209.36L113.53,213.09L112.03,215.18L110.54,214.67L107.55,214.82L106.06,215.32L101.58,214.28L100.08,214.39L98.59,213.94L97.1,214.43L95.6,214.67L94.11,208.39L88.13,208.84L86.64,209.27L82.16,209.98L80.66,211.24L76.18,212.35L74.69,213.12L73.2,212.55L71.7,213.24L68.71,214.88L67.22,214.49L64.23,216.06L62.74,218.65L61.25,218.43L59.75,219.92L55.27,224.08L53.78,224.7L49.29,223.15L47.8,220.31L46.31,219.41L44.81,222.14L41.83,216.86L40.33,214.31L35.85,205.37L34.36,200.74L32.86,198.39L31.37,194.31L29.88,193.01L28.38,193.23L26.89,192.48L25.39,189.83L22.41,193.63L20.91,193.74L19.42,196.86L17.93,196.4L16.43,196.24L14.94,199.26L13.44,199.06L11.95,200.57L8.96,213.27L7.47,217.81L2.99,213.81L1.49,217.04L0,219.92" style="vector-effect: none; fill: none; stroke: rgb(99, 110, 250); stroke-opacity: 1; stroke-width: 2px; opacity: 1;"/></g><g class="points"/><g class="text"/></g><g class="trace scatter trace60d22c" style="stroke-miterlimit: 2; opacity: 1;"><g class="fills"/><g class="errorbars"/><g class="lines"><path class="js-line" d="M117.76,262.2L117.51,250.79L117.01,252.05L116.76,252.19L115.52,250.42L115.27,249.05L110.54,248.22L109.05,247.45L97.1,247.12L95.6,246.9L94.11,248.47L92.61,248.2L68.71,245.57L67.22,244.56L52.28,242.69L50.79,243.2L43.32,245.83L41.83,246.66L37.34,249.06L35.85,249.85L32.86,252.32L31.37,253L26.89,253.81L25.39,253.76L19.42,252.61L17.93,251.75L10.46,249.26L8.96,248.13L5.98,246.13L4.48,244L2.99,242.74L1.49,240.34L0,240.91" style="vector-effect: none; fill: none; stroke: rgb(239, 85, 59); stroke-opacity: 1; stroke-width: 2px; opacity: 1;"/></g><g class="points"/><g class="text"/></g></g></g></g><path class="xlines-above crisp" d="M0,0" style="fill: none;"/><path class="ylines-above crisp" d="M0,0" style="fill: none;"/><g class="overlines-above"/><g class="xaxislayer-above"><g class="x5tick"><text text-anchor="middle" x="0" y="389" transform="translate(612.45,0)" style="font-family: 'Open Sans', verdana, arial, sans-serif; font-size: 12px; fill: rgb(42, 63, 95); fill-opacity: 1; white-space: pre; opacity: 1;">−36</text></g><g class="x5tick"><text text-anchor="middle" x="0" y="389" style="font-family: 'Open Sans', verdana, arial, sans-serif; font-size: 12px; fill: rgb(42, 63, 95); fill-opacity: 1; white-space: pre; opacity: 1;" transform="translate(648.3,0)">−24</text></g><g class="x5tick"><text text-anchor="middle" x="0" y="389" style="font-family: 'Open Sans', verdana, arial, sans-serif; font-size: 12px; fill: rgb(42, 63, 95); fill-opacity: 1; white-space: pre; opacity: 1;" transform="translate(684.15,0)">−12</text></g><g class="x5tick"><text text-anchor="middle" x="0" y="389" style="font-family: 'Open Sans', verdana, arial, sans-serif; font-size: 12px; fill: rgb(42, 63, 95); fill-opacity: 1; white-space: pre; opacity: 1;" transform="translate(720,0)">0</text></g></g><g class="yaxislayer-above"/><g class="overaxes-above"/></g></g><g class="polarlayer"/><g class="smithlayer"/><g class="ternarylayer"/><g class="geolayer"/><g class="funnelarealayer"/><g class="pielayer"/><g class="iciclelayer"/><g class="treemaplayer"/><g class="sunburstlayer"/><g class="glimages"/><defs id="topdefs-cfa558"><g class="clips"/><clipPath id="legendcfa558"><rect width="479" height="29" x="0" y="0"/></clipPath></defs><g class="layer-above"><g class="imagelayer"/><g class="shapelayer"/></g><g class="infolayer"><g class="legend" pointer-events="all" transform="translate(160.5,458.8)"><rect class="bg" shape-rendering="crispEdges" width="479" height="29" x="0" y="0" style="stroke: rgb(68, 68, 68); stroke-opacity: 1; fill: rgb(255, 255, 255); fill-opacity: 1; stroke-width: 0px;"/><g class="scrollbox" transform="" clip-path="url(#legendcfa558)"><text class="legendtitletext" text-anchor="start" x="2" y="18.2" style="font-family: 'Open Sans', verdana, arial, sans-serif; font-size: 14px; fill: rgb(42, 63, 95); fill-opacity: 1; white-space: pre;">High/Low</text><g class="groups" transform=""><g class="traces" transform="translate(72,14.5)" style="opacity: 1;"><text class="legendtext" text-anchor="start" x="40" y="4.680000000000001" style="font-family: 'Open Sans', verdana, arial, sans-serif; font-size: 12px; fill: rgb(42, 63, 95); fill-opacity: 1; white-space: pre;">Predicted High, Actually Low</text><g class="layers" style="opacity: 1;"><g class="legendfill"/><g class="legendlines"><path class="js-line" d="M5,0h30" style="fill: none; stroke: rgb(99, 110, 250); stroke-opacity: 1; stroke-width: 2px;"/></g><g class="legendsymbols"><g class="legendpoints"/></g></g><rect class="legendtoggle" x="0" y="-9.5" width="201.078125" height="19" style="fill: rgb(0, 0, 0); fill-opacity: 0;"/></g></g><g class="groups" transform="translate(203.578125,0)"><g class="traces" transform="translate(72,14.5)" style="opacity: 1;"><text class="legendtext" text-anchor="start" x="40" y="4.680000000000001" style="font-family: 'Open Sans', verdana, arial, sans-serif; font-size: 12px; fill: rgb(42, 63, 95); fill-opacity: 1; white-space: pre;">Predicted Low, Actually High</text><g class="layers" style="opacity: 1;"><g class="legendfill"/><g class="legendlines"><path class="js-line" d="M5,0h30" style="fill: none; stroke: rgb(239, 85, 59); stroke-opacity: 1; stroke-width: 2px;"/></g><g class="legendsymbols"><g class="legendpoints"/></g></g><rect class="legendtoggle" x="0" y="-9.5" width="200.421875" height="19" style="fill: rgb(0, 0, 0); fill-opacity: 0;"/></g></g></g><rect class="scrollbar" rx="20" ry="3" width="0" height="0" x="0" y="0" style="fill: rgb(128, 139, 164); fill-opacity: 1;"/></g><g class="g-gtitle"><text class="gtitle" x="40" y="50" text-anchor="start" dy="0em" style="opacity: 1; font-family: 'Open Sans', verdana, arial, sans-serif; font-size: 17px; fill: rgb(42, 63, 95); fill-opacity: 1; white-space: pre;">Prediction Accuracy Above/Below 0 $/MWh</text></g><g class="g-xtitle"/><g class="g-x2title"/><g class="g-x3title"><text class="x3title" x="400" y="417.3" text-anchor="middle" style="opacity: 1; font-family: 'Open Sans', verdana, arial, sans-serif; font-size: 14px; fill: rgb(42, 63, 95); fill-opacity: 1; white-space: pre;">Prediction Distance (Intervals)</text></g><g class="g-x4title"/><g class="g-x5title"/><g class="g-ytitle"><text class="ytitle" transform="rotate(-90,29.13125,238)" x="29.13125" y="238" text-anchor="middle" style="opacity: 1; font-family: 'Open Sans', verdana, arial, sans-serif; font-size: 14px; fill: rgb(42, 63, 95); fill-opacity: 1; white-space: pre;">False Positive Rate</text></g><g class="g-y2title"/><g class="g-y3title"/><g class="g-y4title"/><g class="g-y5title"/><g class="annotation" data-index="0" style="opacity: 1;"><g class="annotation-text-g" transform="rotate(0,138.88,89.5)"><g class="cursor-pointer" transform="translate(120,79)"><rect class="bg" x="0.5" y="0.5" width="37" height="20" style="stroke-width: 1px; stroke: rgb(0, 0, 0); stroke-opacity: 0; fill: rgb(0, 0, 0); fill-opacity: 0;"/><text class="annotation-text" text-anchor="middle" x="18.8125" y="15" style="font-family: 'Open Sans', verdana, arial, sans-serif; font-size: 12px; fill: rgb(42, 63, 95); fill-opacity: 1; white-space: pre;">NSW1</text></g></g></g><g class="annotation" data-index="1" style="opacity: 1;"><g class="annotation-text-g" transform="rotate(0,269.44000000000005,89.5)"><g class="cursor-pointer" transform="translate(252,79)"><rect class="bg" x="0.5" y="0.5" width="34" height="20" style="stroke-width: 1px; stroke: rgb(0, 0, 0); stroke-opacity: 0; fill: rgb(0, 0, 0); fill-opacity: 0;"/><text class="annotation-text" text-anchor="middle" x="17.59375" y="15" style="font-family: 'Open Sans', verdana, arial, sans-serif; font-size: 12px; fill: rgb(42, 63, 95); fill-opacity: 1; white-space: pre;">QLD1</text></g></g></g><g class="annotation" data-index="2" style="opacity: 1;"><g class="annotation-text-g" transform="rotate(0,400,89.5)"><g class="cursor-pointer" transform="translate(388,79)"><rect class="bg" x="0.5" y="0.5" width="24" height="20" style="stroke-width: 1px; stroke: rgb(0, 0, 0); stroke-opacity: 0; fill: rgb(0, 0, 0); fill-opacity: 0;"/><text class="annotation-text" text-anchor="middle" x="12.53125" y="15" style="font-family: 'Open Sans', verdana, arial, sans-serif; font-size: 12px; fill: rgb(42, 63, 95); fill-opacity: 1; white-space: pre;">SA1</text></g></g></g><g class="annotation" data-index="3" style="opacity: 1;"><g class="annotation-text-g" transform="rotate(0,530.5600000000002,89.5)"><g class="cursor-pointer" transform="translate(515,79)"><rect class="bg" x="0.5" y="0.5" width="31" height="20" style="stroke-width: 1px; stroke: rgb(0, 0, 0); stroke-opacity: 0; fill: rgb(0, 0, 0); fill-opacity: 0;"/><text class="annotation-text" text-anchor="middle" x="15.84375" y="15" style="font-family: 'Open Sans', verdana, arial, sans-serif; font-size: 12px; fill: rgb(42, 63, 95); fill-opacity: 1; white-space: pre;">TAS1</text></g></g></g><g class="annotation" data-index="4" style="opacity: 1;"><g class="annotation-text-g" transform="rotate(0,661.12,89.5)"><g class="cursor-pointer" transform="translate(647,79)"><rect class="bg" x="0.5" y="0.5" width="28" height="20" style="stroke-width: 1px; stroke: rgb(0, 0, 0); stroke-opacity: 0; fill: rgb(0, 0, 0); fill-opacity: 0;"/><text class="annotation-text" text-anchor="middle" x="14.46875" y="15" style="font-family: 'Open Sans', verdana, arial, sans-serif; font-size: 12px; fill: rgb(42, 63, 95); fill-opacity: 1; white-space: pre;">VIC1</text></g></g></g></g></svg>