<?xml version="1.0" encoding="UTF-8" standalone="no"?>
<svg
   xmlns:dc="http://purl.org/dc/elements/1.1/"
   xmlns:cc="http://creativecommons.org/ns#"
   xmlns:rdf="http://www.w3.org/1999/02/22-rdf-syntax-ns#"
   xmlns:svg="http://www.w3.org/2000/svg"
   xmlns="http://www.w3.org/2000/svg"
   xmlns:sodipodi="http://sodipodi.sourceforge.net/DTD/sodipodi-0.dtd"
   xmlns:inkscape="http://www.inkscape.org/namespaces/inkscape"
   version="1.0"
   width="128.000000pt"
   height="128.000000pt"
   viewBox="0 0 128.000000 128.000000"
   preserveAspectRatio="xMidYMid meet"
   id="svg10"
   sodipodi:docname="link-blue.svg"
   inkscape:version="0.92.3 (2405546, 2018-03-11)">
  <defs
     id="defs14" />
  <sodipodi:namedview
     pagecolor="#ffffff"
     bordercolor="#666666"
     borderopacity="1"
     objecttolerance="10"
     gridtolerance="10"
     guidetolerance="10"
     inkscape:pageopacity="0"
     inkscape:pageshadow="2"
     inkscape:window-width="1920"
     inkscape:window-height="996"
     id="namedview12"
     showgrid="false"
     inkscape:zoom="1.3828125"
     inkscape:cx="-158.37288"
     inkscape:cy="85.333333"
     inkscape:window-x="0"
     inkscape:window-y="27"
     inkscape:window-maximized="1"
     inkscape:current-layer="svg10" />
  <metadata
     id="metadata2">
Created by potrace 1.14, written by Peter Selinger 2001-2017
<rdf:RDF>
  <cc:Work
     rdf:about="">
    <dc:format>image/svg+xml</dc:format>
    <dc:type
       rdf:resource="http://purl.org/dc/dcmitype/StillImage" />
    <dc:title></dc:title>
  </cc:Work>
</rdf:RDF>
</metadata>
  <g
     transform="translate(0.000000,128.000000) scale(0.100000,-0.100000)"
     fill="#000000"
     stroke="none"
     id="g8"
     style="fill:#333355">
    <path
       d="M900 1265 c-77 -22 -137 -66 -273 -203 l-118 -118 60 4 c39 3 76 -1 107 -12 l47 -16 88 84 c122 116 190 134 258 65 37 -36 47 -85 30 -136 -16 -51 -274 -314 -336 -344 -55 -27 -108 -22 -156 15 -19 14 -46 26 -61 26 -35 0 -86 -49 -86 -83 0 -35 43 -83 104 -115 43 -22 64 -27 131 -27 123 0 164 23 339 195 167 163 209 220 232 309 19 74 14 124 -20 196 -60 130 -207 198 -346 160z"
       id="path4"
       style="fill:#333355" />
    <path
       d="M495 867 c-77 -26 -109 -50 -251 -189 -160 -157 -205 -216 -230 -302 -48 -170 69 -342 253 -371 58 -9 157 18 218 60 28 19 103 88 168 153 l118 118 -60 -4 c-39 -3 -76 1 -107 12 l-47 16 -88 -84 c-122 -116 -190 -134 -258 -65 -37 36 -47 85 -30 136 16 51 274 314 336 344 55 27 108 22 156 -15 45 -34 81 -33 118 3 36 37 37 70 3 111 -61 71 -204 108 -299 77z"
       id="path6"
       style="fill:#333355" />
  </g>
</svg>
