<?xml version="1.0" encoding="UTF-8" standalone="no"?>
<!-- Generator: Adobe Illustrator 23.0.0, SVG Export Plug-In . SVG Version: 6.00 Build 0)  -->

<svg
   xmlns:dc="http://purl.org/dc/elements/1.1/"
   xmlns:cc="http://creativecommons.org/ns#"
   xmlns:rdf="http://www.w3.org/1999/02/22-rdf-syntax-ns#"
   xmlns:svg="http://www.w3.org/2000/svg"
   xmlns="http://www.w3.org/2000/svg"
   xmlns:sodipodi="http://sodipodi.sourceforge.net/DTD/sodipodi-0.dtd"
   xmlns:inkscape="http://www.inkscape.org/namespaces/inkscape"
   version="1.1"
   id="Layer_1"
   x="0px"
   y="0px"
   viewBox="0 0 671.75142 247.48738"
   width="950"
   height="350"
   xml:space="preserve"
   sodipodi:docname="topimage.svg"
   inkscape:version="0.92.3 (2405546, 2018-03-11)"><metadata
   id="metadata92"><rdf:RDF><cc:Work
       rdf:about=""><dc:format>image/svg+xml</dc:format><dc:type
         rdf:resource="http://purl.org/dc/dcmitype/StillImage" /><dc:title /></cc:Work></rdf:RDF></metadata><defs
   id="defs90" /><sodipodi:namedview
   pagecolor="#ffffff"
   bordercolor="#666666"
   borderopacity="1"
   objecttolerance="10"
   gridtolerance="10"
   guidetolerance="10"
   inkscape:pageopacity="0"
   inkscape:pageshadow="2"
   inkscape:window-width="1920"
   inkscape:window-height="996"
   id="namedview88"
   showgrid="false"
   inkscape:zoom="0.834386"
   inkscape:cx="229.61248"
   inkscape:cy="99.060461"
   inkscape:window-x="0"
   inkscape:window-y="27"
   inkscape:window-maximized="1"
   inkscape:current-layer="layer2" />

<style
   type="text/css"
   id="style2">

	.st0{fill:#DE5833;}

	.st1{fill:#FFFFFF;}

	.st2{fill-rule:evenodd;clip-rule:evenodd;fill:#FED30A;}

	.st3{fill:#2D4F8D;}

	.st4{fill:#D5D7D8;}

	.st5{fill:#67BD47;}

	.st6{fill:#43A347;}

	.st7{fill:#4C4C4C;}

</style>



<g
   inkscape:groupmode="layer"
   id="layer2"
   inkscape:label="background"><rect
     id="rect485"
     width="695.7627"
     height="269.49152"
     x="-9.3220367"
     y="-15.648204"
     style="fill:#ffffff;fill-opacity:1;stroke-width:0.48990718" /></g><g
   id="g85"
   transform="matrix(1.1359558,0,0,1.1448646,391.99046,8.2268482)">

	<g
   id="g77">

		<g
   id="g33">

			<circle
   class="st0"
   cx="127"
   cy="79"
   r="60"
   id="circle4"
   style="fill:#de5833" />

			<path
   class="st1"
   d="M 177.8,57.5 C 175,50.9 171,45 166,40 c -5.1,-5.1 -11,-9 -17.5,-11.8 -6.8,-2.9 -14,-4.3 -21.5,-4.3 -7.4,0 -14.7,1.5 -21.5,4.3 C 98.9,30.9 93,34.9 88,40 c -5.1,5.1 -9,11 -11.8,17.5 -2.9,6.8 -4.3,14 -4.3,21.5 0,7.5 1.5,14.7 4.3,21.5 2.8,6.6 6.8,12.5 11.8,17.5 5.1,5.1 11,9 17.5,11.8 6.8,2.9 14,4.3 21.5,4.3 7.4,0 14.7,-1.5 21.5,-4.3 6.5,-2.8 12.4,-6.8 17.5,-11.8 5.1,-5.1 9,-11 11.8,-17.5 2.9,-6.8 4.3,-14 4.3,-21.5 0,-7.5 -1.4,-14.7 -4.3,-21.5 z m -38.8,71 c -3.2,-5.4 -11.6,-20.5 -11.6,-31.7 0,-25.8 17.3,-3.7 17.3,-24.3 0,-4.9 -2.4,-22.1 -17.4,-25.7 -3.7,-4.9 -12.4,-9.6 -26.2,-7.7 0,0 2.3,0.7 4.9,2 0,0 -5,0.7 -5.2,4.1 0,0 9.9,-0.5 15.5,1.3 C 103.4,48.2 96.8,55 98,67.3 99.7,84.8 107.1,116 109.7,126.9 90.1,119.9 76,101.1 76,79 76,50.9 98.8,28 127,28 c 28.2,0 51,22.8 51,51 -0.1,24 -16.7,44.1 -39,49.5 z"
   id="path6"
   inkscape:connector-curvature="0"
   style="fill:#ffffff" />

			<path
   id="Beak_2_"
   class="st2"
   d="m 124.2,87.3 c 0,-6.6 9,-8.7 12.4,-8.7 9.2,0 22.2,-5.9 25.4,-5.8 3.3,0.1 5.4,1.4 5.4,2.9 0,2.2 -18.4,10.5 -25.5,9.8 -6.8,-0.6 -8.4,0.1 -8.4,2.9 0,2.4 4.9,4.6 10.3,4.6 8.1,0 16,-3.6 18.4,-1.9 2.1,1.5 -5.5,6.9 -14.2,6.9 -8.7,0 -23.8,-4.1 -23.8,-10.7 z"
   inkscape:connector-curvature="0"
   style="clip-rule:evenodd;fill:#fed30a;fill-rule:evenodd" />

			<g
   id="g17">

				<path
   class="st3"
   d="m 140.2,59.3 c -2.4,-3.1 -6.7,-3.2 -8.2,0.4 2.3,-1.8 5.1,-2.2 8.2,-0.4 z"
   id="path9"
   inkscape:connector-curvature="0"
   style="fill:#2d4f8d" />

				<path
   class="st3"
   d="m 113.5,59.4 c -3.3,-2 -8.8,-2.2 -8.5,4.1 1.6,-3.9 3.8,-4.6 8.5,-4.1 z"
   id="path11"
   inkscape:connector-curvature="0"
   style="fill:#2d4f8d" />

				<path
   class="st3"
   d="m 138.2,65.2 c -1.8,0 -3.3,1.5 -3.3,3.3 0,1.8 1.5,3.3 3.3,3.3 1.8,0 3.3,-1.5 3.3,-3.3 0,-1.8 -1.5,-3.3 -3.3,-3.3 z m 1.2,3.1 c -0.5,0 -1,-0.4 -1,-1 0,-0.5 0.4,-1 1,-1 0.6,0 1,0.4 1,1 -0.1,0.5 -0.5,1 -1,1 z"
   id="path13"
   inkscape:connector-curvature="0"
   style="fill:#2d4f8d" />

				<path
   class="st3"
   d="m 112.6,67 c -2.1,0 -3.8,1.7 -3.8,3.8 0,2.1 1.7,3.8 3.8,3.8 2.1,0 3.8,-1.7 3.8,-3.8 0,-2.1 -1.7,-3.8 -3.8,-3.8 z m 1.4,3.5 c -0.6,0 -1.1,-0.5 -1.1,-1.1 0,-0.6 0.5,-1.1 1.1,-1.1 0.6,0 1.1,0.5 1.1,1.1 0,0.6 -0.5,1.1 -1.1,1.1 z"
   id="path15"
   inkscape:connector-curvature="0"
   style="fill:#2d4f8d" />

			</g>

			<g
   id="g25">

				<path
   class="st4"
   d="m 104.3,50.8 c -4.8,3.5 -7,8.9 -6.3,16.5 1.7,17.5 9.1,48.8 11.7,59.7 0.9,0.3 1.8,0.6 2.7,0.9 -1.6,-6.6 -9.3,-38.8 -12.7,-63.5 -0.9,-6.6 1.7,-10.5 4.6,-13.6 z"
   id="path19"
   inkscape:connector-curvature="0"
   style="fill:#d5d7d8" />

				<path
   class="st4"
   d="m 116.2,46.5 c 0.4,0 0.7,-0.1 0.7,-0.1 -5.2,-2.5 -13.4,-2.6 -15.6,-2.6 -0.2,0.4 -0.4,0.9 -0.4,1.4 -0.1,0.1 9.6,-0.5 15.3,1.3 z"
   id="path21"
   inkscape:connector-curvature="0"
   style="fill:#d5d7d8" />

				<path
   class="st4"
   d="m 106.8,41.1 c -1.6,-1.1 -2.9,-1.8 -3.7,-2.2 -0.7,0.1 -1.3,0.1 -2,0.2 0,0 2.3,0.7 4.9,2 0,0 -0.1,0 -0.2,0 0.7,0 1,0 1,0 z"
   id="path23"
   inkscape:connector-curvature="0"
   style="fill:#d5d7d8" />

			</g>

			<g
   id="g31">

				<path
   class="st5"
   d="m 147.1,107.6 c -1.7,-0.4 -8.3,4.3 -10.8,6.1 -0.1,-0.5 -0.2,-0.9 -0.3,-1.1 -0.3,-1 -6.7,-0.4 -8.2,1.2 -4,-1.9 -12,-5.6 -12.1,-3.3 -0.3,3 0,15.5 1.6,16.4 1.2,0.7 8,-3 11.4,-4.9 0,0 0,0 0.1,0 2.1,0.5 6,0 7.4,-0.9 0.2,-0.1 0.3,-0.3 0.4,-0.5 3.1,1.2 9.8,3.6 11.2,3.1 1.8,-0.5 1.4,-15.6 -0.7,-16.1 z"
   id="path27"
   inkscape:connector-curvature="0"
   style="fill:#67bd47" />

				<path
   class="st6"
   d="m 128.8,122 c -2.1,-0.4 -1.4,-2.5 -1.4,-7.4 0,0 0,0 0,0 -0.5,0.3 -0.9,0.7 -0.9,1.1 0,4.9 -0.8,7.1 1.4,7.4 2.1,0.5 6,0 7.6,-0.9 0.3,-0.2 0.4,-0.5 0.5,-1 -1.5,0.9 -5.2,1.3 -7.2,0.8 z"
   id="path29"
   inkscape:connector-curvature="0"
   style="fill:#43a347" />

			</g>

		</g>

		<g
   id="g75">

			<g
   id="g37">

				<path
   class="st7"
   d="M 24.5,180.6 V 156 h 8.9 c 8.5,0 12.4,6.2 12.4,12 0,6.3 -3.8,12.6 -12.4,12.6 z m 2.8,-2.9 h 6.1 c 6.6,0 9.5,-4.9 9.5,-9.8 0,-4.5 -3,-9.3 -9.5,-9.3 h -6.1 z"
   id="path35"
   inkscape:connector-curvature="0"
   style="fill:#4c4c4c" />

			</g>

			<g
   id="g41">

				<path
   class="st7"
   d="m 57,180.9 c -4.6,0 -7.5,-3.1 -7.5,-8 v -9.6 h 2.7 v 9.5 c 0,3.5 2,5.6 5.4,5.6 3.2,0 5.5,-2.5 5.5,-5.8 v -9.3 h 2.7 v 17.3 h -2.4 l -0.2,-3 -0.4,0.5 c -1.5,1.8 -3.4,2.7 -5.8,2.8 z"
   id="path39"
   inkscape:connector-curvature="0"
   style="fill:#4c4c4c" />

			</g>

			<g
   id="g45">

				<path
   class="st7"
   d="m 78.7,180.9 c -4.5,0 -9,-2.8 -9,-8.9 0,-5.4 3.6,-8.9 9,-8.9 2.4,0 4.4,0.8 6.2,2.5 l -1.7,1.7 c -1.2,-1.1 -2.8,-1.7 -4.4,-1.7 -3.8,0 -6.4,2.6 -6.4,6.4 0,4.4 3.2,6.4 6.4,6.4 1.8,0 3.4,-0.6 4.6,-1.8 l 1.7,1.7 c -1.8,1.7 -4,2.6 -6.4,2.6 z"
   id="path43"
   inkscape:connector-curvature="0"
   style="fill:#4c4c4c" />

			</g>

			<g
   id="g49">

				<polygon
   class="st7"
   points="93.8,171.4 103,180.5 103,180.6 99.6,180.6 91.1,172.1 91.1,180.6 88.5,180.6 88.5,156 91.1,156 91.1,170.9 98.5,163.3 102,163.3 "
   id="polygon47"
   style="fill:#4c4c4c" />

			</g>

			<g
   id="g53">

				<path
   class="st7"
   d="M 106.2,180.6 V 156 h 8.9 c 8.5,0 12.4,6.2 12.4,12 0,6.3 -3.8,12.6 -12.4,12.6 z m 2.9,-2.9 h 6.1 c 6.6,0 9.5,-4.9 9.5,-9.8 0,-4.5 -3,-9.3 -9.5,-9.3 h -6.1 z"
   id="path51"
   inkscape:connector-curvature="0"
   style="fill:#4c4c4c" />

			</g>

			<g
   id="g57">

				<path
   class="st7"
   d="m 138.7,180.9 c -4.6,0 -7.5,-3.1 -7.5,-8 v -9.6 h 2.7 v 9.5 c 0,3.5 2,5.6 5.4,5.6 3.2,0 5.5,-2.5 5.5,-5.8 v -9.3 h 2.7 v 17.3 h -2.4 l -0.1,-3 -0.4,0.5 c -1.5,1.8 -3.5,2.7 -5.9,2.8 z"
   id="path55"
   inkscape:connector-curvature="0"
   style="fill:#4c4c4c" />

			</g>

			<g
   id="g61">

				<path
   class="st7"
   d="m 160.4,180.9 c -4.5,0 -9,-2.8 -9,-8.9 0,-5.4 3.6,-8.9 9,-8.9 2.4,0 4.4,0.8 6.2,2.5 l -1.7,1.7 c -1.2,-1.1 -2.8,-1.7 -4.4,-1.7 -3.8,0 -6.4,2.6 -6.4,6.4 0,4.4 3.2,6.4 6.4,6.4 1.8,0 3.4,-0.6 4.6,-1.8 l 1.7,1.7 -0.1,0.1 v 0 c -1.7,1.7 -3.8,2.5 -6.3,2.5 z"
   id="path59"
   inkscape:connector-curvature="0"
   style="fill:#4c4c4c" />

			</g>

			<g
   id="g65">

				<polygon
   class="st7"
   points="175.6,171.4 184.7,180.5 184.7,180.6 181.3,180.6 172.9,172.1 172.9,180.6 170.3,180.6 170.3,156 172.9,156 172.9,170.9 180.3,163.3 183.7,163.3 "
   id="polygon63"
   style="fill:#4c4c4c" />

			</g>

			<g
   id="g69">

				<path
   class="st7"
   d="m 198.6,181 c -9.5,0 -12.8,-6.8 -12.8,-12.5 0,-3.8 1.3,-7.1 3.6,-9.5 2.3,-2.3 5.5,-3.5 9.2,-3.5 3.4,0 6.5,1.3 8.9,3.6 l -1.6,1.9 c -1.9,-1.8 -4.7,-2.9 -7.3,-2.9 -6.9,0 -10,5.4 -10,10.4 0,4.9 3.1,9.9 10.1,9.9 2.5,0 4.9,-0.9 6.8,-2.5 l 0.1,-0.1 v -6.1 h -7.7 v -2.5 h 10.3 v 9.6 c -2.7,2.9 -5.8,4.2 -9.6,4.2 z"
   id="path67"
   inkscape:connector-curvature="0"
   style="fill:#4c4c4c" />

			</g>

			<g
   id="g73">

				<path
   class="st7"
   d="m 220.4,180.9 c -5.2,0 -8.9,-3.7 -8.9,-8.9 0,-5.2 3.8,-9.1 8.9,-9.1 5.3,0 9,3.7 9,9.1 -0.1,5.1 -3.8,8.9 -9,8.9 z m 0,-15.6 c -3.7,0 -6.3,2.7 -6.3,6.6 0,3.7 2.6,6.4 6.3,6.4 3.7,0 6.3,-2.6 6.4,-6.4 -0.1,-3.8 -2.7,-6.6 -6.4,-6.6 z"
   id="path71"
   inkscape:connector-curvature="0"
   style="fill:#4c4c4c" />

			</g>

		</g>

	</g>

	<g
   id="g83">

		<path
   class="st7"
   d="m 230.9,181.2 v 0 c 0.2,-0.1 0.3,-0.2 0.3,-0.4 0,-0.2 -0.1,-0.3 -0.2,-0.4 -0.1,-0.1 -0.3,-0.1 -0.6,-0.1 -0.3,0 -0.5,0 -0.6,0.1 v 1.6 h 0.4 v -0.7 h 0.2 c 0.2,0 0.3,0.1 0.3,0.3 0.1,0.2 0.1,0.3 0.1,0.4 h 0.4 c 0,-0.1 -0.1,-0.2 -0.1,-0.4 0,-0.2 -0.1,-0.3 -0.2,-0.4 z m -0.5,-0.1 h -0.2 v -0.5 c 0,0 0.1,0 0.2,0 0.2,0 0.3,0.1 0.3,0.2 0.1,0.2 0,0.3 -0.3,0.3 z"
   id="path79"
   inkscape:connector-curvature="0"
   style="fill:#4c4c4c" />

		<path
   class="st7"
   d="m 230.5,179.5 c -0.9,0 -1.7,0.7 -1.7,1.6 0,0.9 0.7,1.7 1.7,1.7 0.9,0 1.7,-0.7 1.7,-1.7 0,-0.9 -0.7,-1.6 -1.7,-1.6 z m 0,3 c -0.7,0 -1.3,-0.6 -1.3,-1.3 0,-0.7 0.5,-1.3 1.3,-1.3 0.7,0 1.3,0.6 1.3,1.3 0,0.7 -0.6,1.3 -1.3,1.3 z"
   id="path81"
   inkscape:connector-curvature="0"
   style="fill:#4c4c4c" />

	</g>

</g><g
   id="g134"
   transform="matrix(1.0741875,0,0,1.0741875,-342.74718,42.711665)"><path
     id="path2"
     d="m 455.76885,77.903374 c 0,13.524886 -10.58055,23.491146 -23.56528,23.491146 -12.98474,0 -23.56529,-9.96626 -23.56529,-23.491146 0,-13.620204 10.58055,-23.491147 23.56529,-23.491147 12.98473,0 23.56528,9.870943 23.56528,23.491147 z m -10.31577,0 c 0,-8.451727 -6.13227,-14.23449 -13.24951,-14.23449 -7.11725,0 -13.24952,5.782763 -13.24952,14.23449 0,8.366996 6.13227,14.234486 13.24952,14.234486 7.11724,0 13.24951,-5.87808 13.24951,-14.234486 z"
     style="fill:#ea4335;stroke-width:1.0591141"
     inkscape:connector-curvature="0" /><path
     id="path4"
     d="m 506.60632,77.903374 c 0,13.524886 -10.58054,23.491146 -23.56528,23.491146 -12.98474,0 -23.56529,-9.96626 -23.56529,-23.491146 0,-13.609612 10.58055,-23.491147 23.56529,-23.491147 12.98474,0 23.56528,9.870943 23.56528,23.491147 z m -10.31577,0 c 0,-8.451727 -6.13226,-14.23449 -13.24951,-14.23449 -7.11725,0 -13.24952,5.782763 -13.24952,14.23449 0,8.366996 6.13227,14.234486 13.24952,14.234486 7.11725,0 13.24951,-5.87808 13.24951,-14.234486 z"
     style="fill:#fbbc05;stroke-width:1.0591141"
     inkscape:connector-curvature="0" /><path
     id="path6-7"
     d="m 555.32558,55.83144 v 42.17391 c 0,17.34829 -10.23105,24.43377 -22.32612,24.43377 -11.38548,0 -18.23795,-7.61504 -20.82219,-13.84263 l 8.98128,-3.73868 c 1.59926,3.82341 5.51799,8.33523 11.8303,8.33523 7.74213,0 12.53992,-4.7766 12.53992,-13.76847 V 96.046 h -0.3601 c -2.30887,2.849 -6.75715,5.33792 -12.37046,5.33792 -11.74557,0 -22.50616,-10.23103 -22.50616,-23.395816 0,-13.260105 10.76059,-23.575877 22.50616,-23.575877 5.60272,0 10.051,2.488919 12.37046,5.253207 h 0.3601 v -3.823403 h 9.79681 z m -9.06602,22.156664 c 0,-8.271678 -5.51798,-14.31922 -12.53991,-14.31922 -7.11725,0 -13.08006,6.047542 -13.08006,14.31922 0,8.186946 5.96281,14.149756 13.08006,14.149756 7.02193,0 12.53991,-5.96281 12.53991,-14.149756 z"
     style="fill:#4285f4;stroke-width:1.0591141"
     inkscape:connector-curvature="0" /><path
     id="path8"
     d="M 571.47706,31.111717 V 99.95412 H 561.41548 V 31.111717 Z"
     style="fill:#34a853;stroke-width:1.0591141"
     inkscape:connector-curvature="0" /><path
     id="path10"
     d="m 610.68547,85.63491 8.00689,5.33794 c -2.58423,3.82339 -8.81181,10.41107 -19.57242,10.41107 -13.34483,0 -23.3111,-10.31577 -23.3111,-23.491136 0,-13.969712 10.05099,-23.491148 22.15666,-23.491148 12.19041,0 18.15322,9.701485 20.10199,14.944099 l 1.06971,2.668968 -31.40274,13.005917 c 2.4042,4.71306 6.14286,7.11724 11.38548,7.11724 5.25321,0 8.89656,-2.58424 11.56553,-6.50295 z m -24.64559,-8.451726 20.99165,-8.716513 c -1.15444,-2.933746 -4.62834,-4.977836 -8.71651,-4.977836 -5.24262,0 -12.53991,4.628329 -12.27514,13.694349 z"
     style="fill:#ea4335;stroke-width:1.0591141"
     inkscape:connector-curvature="0" /><path
     id="path12"
     d="m 370.55253,71.792289 v -9.966264 h 33.58452 c 0.32832,1.736947 0.49778,3.79163 0.49778,6.015769 0,7.47735 -2.0441,16.723406 -8.63178,23.311096 -6.40764,6.67242 -14.59459,10.23103 -25.43993,10.23103 -20.10197,0 -37.00544,-16.37389 -37.00544,-36.475872 0,-20.101985 16.90347,-36.475889 37.00544,-36.475889 11.1207,0 19.04287,4.36355 24.9951,10.050992 l -7.03252,7.032518 c -4.26823,-4.003452 -10.05099,-7.117246 -17.97317,-7.117246 -14.67932,0 -26.16012,11.830303 -26.16012,26.509625 0,14.679326 11.4808,26.509622 26.16012,26.509622 9.52144,0 14.94411,-3.82341 18.418,-7.2973 2.81724,-2.81724 4.67069,-6.841866 5.40148,-12.338672 z"
     style="fill:#4285f4;stroke-width:1.0591141"
     inkscape:connector-curvature="0" /></g><text
   xml:space="preserve"
   style="font-style:normal;font-variant:normal;font-weight:normal;font-stretch:normal;font-size:28.28427124px;line-height:1.25;font-family:'Roboto Condensed';-inkscape-font-specification:'Roboto Condensed, Normal';font-variant-ligatures:normal;font-variant-caps:normal;font-variant-numeric:normal;text-align:start;letter-spacing:0px;word-spacing:0px;writing-mode:lr-tb;text-anchor:start;fill:#000000;fill-opacity:1;stroke:none;stroke-width:0.70710677px;stroke-linecap:butt;stroke-linejoin:miter;stroke-opacity:1"
   x="353.23215"
   y="137.14925"
   id="text112"><tspan
     sodipodi:role="line"
     id="tspan110"
     x="353.23215"
     y="137.14925"
     style="font-style:normal;font-variant:normal;font-weight:normal;font-stretch:normal;font-size:37.71236038px;font-family:'Roboto Condensed';-inkscape-font-specification:'Roboto Condensed, Normal';font-variant-ligatures:normal;font-variant-caps:normal;font-variant-numeric:normal;font-feature-settings:normal;text-align:start;writing-mode:lr-tb;text-anchor:start;stroke-width:0.70710677px">VS</tspan></text>

</svg>