<?xml version="1.0" encoding="UTF-8"?>
<!DOCTYPE svg PUBLIC "-//W3C//DTD SVG 1.0//EN" "http://www.w3.org/TR/2001/REC-SVG-20010904/DTD/svg10.dtd">
<svg fill-opacity="1" xmlns:xlink="http://www.w3.org/1999/xlink" color-rendering="auto" color-interpolation="auto" stroke="black" text-rendering="auto" stroke-linecap="square" stroke-miterlimit="10" stroke-opacity="1" shape-rendering="auto" fill="black" stroke-dasharray="none" font-weight="normal" stroke-width="1" xmlns="http://www.w3.org/2000/svg" font-family="'Dialog'" font-style="normal" stroke-linejoin="miter" font-size="12" stroke-dashoffset="0" image-rendering="auto">
  <!--Unicode Character 'LINK SYMBOL' (U+1F517)-->
  <defs id="genericDefs"/>
  <g>
    <g>
      <path d="M279.8438 119.5312 Q279.8438 135.7031 271.8281 145.9688 Q266.3438 153 247.5 171.9844 Q238.0781 181.8281 218.5312 200.1094 Q207.5625 209.3906 189.2812 209.3906 Q179.4375 209.3906 169.4531 205.1719 L144.8438 229.2188 Q149.625 242.1562 149.625 250.0312 Q149.625 266.2031 140.625 277.1719 Q135.5625 283.2188 117 302.2031 Q108 311.3438 89.5781 329.2031 Q86.3438 332.1562 80.8594 334.8281 Q70.7344 339.75 59.7656 339.75 Q40.6406 339.75 26.0859 325.4062 Q11.5312 311.0625 11.5312 291.9375 Q11.5312 274.5 20.8125 263.8125 Q27.1406 256.5 45.1406 238.2188 Q53.5781 229.6406 71.0156 212.7656 Q75.9375 208.2656 85.9219 205.0312 Q95.2031 202.0781 102.5156 202.0781 Q112.6406 202.0781 122.4844 206.8594 L146.9531 182.1094 Q142.1719 174.375 142.1719 161.8594 Q142.1719 149.2031 147.5156 139.6406 Q152.1562 131.3438 168.6094 114.8906 Q180.8438 103.0781 193.0781 91.125 Q200.1094 83.9531 204.4688 80.7188 Q216.4219 71.8594 231.8906 71.8594 Q251.2969 71.8594 265.5703 85.9922 Q279.8438 100.125 279.8438 119.5312 ZM248.2031 119.8125 Q248.2031 113.2031 243.5625 108.3516 Q238.9219 103.5 232.3125 103.5 Q225.7031 103.5 221.7656 107.1562 Q221.625 107.2969 208.6875 120.7969 Q191.5312 138.375 182.8125 147.2344 Q186.0469 146.1094 189.2812 146.1094 Q195.6094 146.1094 201.0234 151.1719 Q206.4375 156.2344 206.4375 162.5625 Q206.4375 165.5156 204.8906 169.4531 Q224.2969 150.0469 234.1406 139.9219 Q238.9219 135.2812 246.2344 126.8438 Q248.2031 123.75 248.2031 119.8125 ZM269.0156 119.3906 Q269.0156 104.4844 258.0469 93.5859 Q247.0781 82.6875 232.1719 82.6875 Q217.6875 82.6875 209.5312 89.8594 Q202.3594 96.1875 183.2344 115.3125 Q175.2188 123.1875 159.75 139.6406 Q152.5781 147.9375 152.5781 162.2812 Q152.5781 171.9844 155.1094 173.8125 Q157.9219 171 163.6875 165.5156 Q163.5469 164.1094 163.5469 162.5625 Q163.5469 151.1719 168.3281 145.9688 Q174.2344 139.6406 195.3281 118.5469 Q202.6406 110.9531 218.1094 97.1719 Q223.4531 93.0938 232.1719 93.0938 Q243 93.0938 250.5938 100.8984 Q258.1875 108.7031 258.1875 119.5312 Q258.1875 128.8125 253.9688 134.5781 Q249.75 140.3438 224.2969 163.9688 Q216.9844 171.4219 209.6719 179.0156 Q200.1094 187.7344 191.9531 187.7344 Q191.1094 187.7344 189.5625 187.5234 Q188.0156 187.3125 187.1719 187.3125 Q186.3281 187.3125 177.6094 196.7344 Q183.2344 198.9844 189.7031 198.9844 Q200.25 198.9844 207.2812 194.4844 Q212.3438 191.25 230.7656 173.1094 Q239.7656 164.5312 248.625 156.0938 Q260.0156 144.8438 264.5156 137.6016 Q269.0156 130.3594 269.0156 119.3906 ZM195.1875 162.8438 Q195.1875 161.2969 192.5859 158.9062 Q189.9844 156.5156 188.4375 156.5156 Q187.3125 157.3594 184.3594 160.1719 Q183.5156 161.0156 110.5312 233.4375 Q96.1875 247.6406 96.1875 249.1875 Q96.1875 250.5938 98.2969 253.0547 Q100.4062 255.5156 101.8125 255.5156 Q103.2188 255.5156 121.3594 237.5156 Q145.125 214.1719 191.6719 166.7812 Q193.3594 164.9531 195.1875 162.8438 ZM138.7969 249.4688 Q138.7969 242.5781 136.8281 237.6562 Q133.7344 240.0469 130.5 242.2969 Q127.125 245.25 127.125 248.9062 Q127.125 249.75 127.2656 251.4375 Q127.4062 253.125 127.4062 253.9688 Q127.4062 259.1719 124.3125 263.3906 Q120.375 268.875 98.5781 290.6719 Q76.0781 313.1719 72 315.2812 Q65.6719 318.5156 59.2031 318.5156 Q48.375 318.5156 40.5703 310.8516 Q32.7656 303.1875 32.7656 292.3594 Q32.7656 281.3906 39.375 274.5 Q43.0312 270.7031 66.0938 248.0625 Q72.8438 241.1719 87.0469 227.8125 Q92.1094 223.7344 101.1094 223.7344 Q101.6719 223.7344 102.7969 223.9453 Q103.9219 224.1562 104.4844 224.1562 Q105.6094 224.1562 113.4844 214.875 Q108 212.4844 101.8125 212.4844 Q89.0156 212.4844 80.1562 220.0781 Q69.4688 229.2188 48.9375 249.8906 Q41.9062 256.7812 28.5469 271.125 Q22.3594 278.4375 22.3594 292.3594 Q22.3594 307.4062 33.2578 318.375 Q44.1562 329.3438 59.2031 329.3438 Q73.125 329.3438 81.2812 322.1719 Q90.2812 314.2969 110.5312 294.0469 Q117.9844 286.7344 132.0469 271.5469 Q138.7969 263.3906 138.7969 249.4688 ZM108.2812 265.6406 Q105.4688 266.3438 102.6562 266.3438 Q96.0469 266.3438 90.7031 260.6484 Q85.3594 254.9531 85.3594 248.3438 Q85.3594 245.9531 86.0625 242.8594 Q72.4219 255.6562 46.8281 282.5156 Q43.1719 286.7344 43.1719 291.9375 Q43.1719 298.4062 47.9531 302.9766 Q52.7344 307.5469 59.2031 307.5469 Q65.5312 307.5469 68.3438 305.2969 Q70.4531 303.6094 80.0156 294.1172 Q89.5781 284.625 108.2812 265.6406 Z" stroke="none"/>
    </g>
  </g>
</svg>