<!DOCTYPE svg PUBLIC "-//W3C//DTD SVG 1.1//EN" "https://www.w3.org/Graphics/SVG/1.1/DTD/svg11.dtd">
<svg xmlns="http://www.w3.org/2000/svg" id="sfn-svg" class="sfn-workflow-graph" width="443" height="257">  
<g transform="translate(12,12)"><g class="nodes"><g class="node-container" transform="translate(26.100000381469727,81.875)"><g class="node anchor"><circle class="shape" x="-16.100000381469727" y="-8.75" r="26.100000381469727"/><text class="label"><tspan xml:space="preserve" text-anchor="middle" alignment-baseline="central">Start</tspan></text></g></g><g class="node-container" transform="translate(395.87500286102295,81.875)"><g class="node anchor"><circle class="shape" x="-12.175000190734863" y="-8.75" r="22.175000190734863"/><text class="label"><tspan xml:space="preserve" text-anchor="middle" alignment-baseline="central">End</tspan></text></g></g><g class="node-container" transform="translate(108.28333473205566,81.875)"><g class="node state Choice NotYetStarted"><rect class="shape" rx="5" ry="5" x="-31.08333396911621" y="-18.75" width="62.16666793823242" height="37.5"/><text class="label"><tspan xml:space="preserve" text-anchor="middle" alignment-baseline="central">Choice</tspan></text></g></g><g class="node-container" transform="translate(184.93333530426025,145)"><g class="node state Pass NotYetStarted"><rect class="shape" rx="5" ry="5" x="-20.56666660308838" y="-18.75" width="41.13333320617676" height="37.5"/><text class="label"><tspan xml:space="preserve" text-anchor="middle" alignment-baseline="central">Yes</tspan></text></g></g><g class="node-container" transform="translate(289.60000228881836,18.75)"><g class="node state Fail NotYetStarted"><rect class="shape" rx="5" ry="5" x="-19.05833339691162" y="-18.75" width="38.11666679382324" height="37.5"/><text class="label"><tspan xml:space="preserve" text-anchor="middle" alignment-baseline="central">No</tspan></text></g></g><g class="node-container" transform="translate(289.60000228881836,145)"><g class="node state Parallel NotYetStarted Container" transform="translate(-59.10000038146973,-67.5)"><rect class="shape" rx="23.64000015258789" ry="23.64000015258789" x="0" y="0" width="118.20000076293945" height="155"/><g class="branches" transform="translate(40,20)"><g class="branch" transform="translate(0,0)"><g class="nodes"><g class="node-container" transform="translate(26.766666412353516,18.75)"><g class="node state Pass NotYetStarted"><rect class="shape" rx="5" ry="5" x="-26.766666412353516" y="-18.75" width="53.53333282470703" height="37.5"/><text class="label"><tspan xml:space="preserve" text-anchor="middle" alignment-baseline="central">Hello</tspan></text></g></g></g><g class="edges"/></g><g class="branch" transform="translate(0,57.5)"><g class="nodes"><g class="node-container" transform="translate(29.100000381469727,18.75)"><g class="node state Pass NotYetStarted"><rect class="shape" rx="5" ry="5" x="-29.100000381469727" y="-18.75" width="58.20000076293945" height="37.5"/><text class="label"><tspan xml:space="preserve" text-anchor="middle" alignment-baseline="central">World</tspan></text></g></g></g><g class="edges"/></g></g><path class="path" style="fill: none;" marker-end="url(#arrowhead130)" d="M0,67.5L3.333333333333333,67.5C6.666666666666666,67.5,13.333333333333332,67.5,16.666666666666664,62.708333333333336C20,57.916666666666664,20,48.33333333333333,23.33333333333333,43.541666666666664C26.666666666666664,38.75,33.33333333333333,38.75,36.666666666666664,38.75L40,38.75"/><path class="path" style="fill: none;" marker-end="url(#arrowhead131)" d="M0,67.5L3.333333333333333,67.5C6.666666666666666,67.5,13.333333333333332,67.5,16.666666666666664,72.29166666666666C20,77.08333333333333,20,86.66666666666666,23.33333333333333,91.45833333333331C26.666666666666664,96.24999999999999,33.33333333333333,96.24999999999999,36.666666666666664,96.24999999999997L40,96.25"/></g></g></g><g class="edges"><g class="edge"><path class="path" style="fill: none;" marker-end="url(#arrowhead132)" d="M121.2288794753575,100.625L126.33517767965989,108.02083333333331C131.44147588396228,115.41666666666666,141.6540722925671,130.20833333333331,148.84370383020283,137.60416666666666C156.03333536783853,145,160.2000020345052,145,162.28333536783853,144.99999999999997L164.36666870117188,145"/><defs><marker id="arrowhead132" viewBox="0 0 10 10" refX="9" refY="5" markerUnits="strokeWidth" markerWidth="8" markerHeight="6" orient="auto"><path d="M 0 0 L 10 5 L 0 10 z"/></marker></defs></g><g class="edge"><path class="path" style="fill: none;" marker-end="url(#arrowhead133)" d="M121.2288794753575,63.125L126.33517767965989,55.72916666666666C131.44147588396228,48.33333333333333,141.6540722925671,33.541666666666664,152.27148159738422,26.145833333333332C162.88889090220133,18.75,173.91111310323078,18.75,184.93333530426023,18.75C195.9555575052897,18.75,206.97777970631915,18.75,221.24583530426025,18.75C235.51389090220133,18.75,253.02777989705402,18.75,261.78472439448035,18.75L270.54166889190674,18.75"/><defs><marker id="arrowhead133" viewBox="0 0 10 10" refX="9" refY="5" markerUnits="strokeWidth" markerWidth="8" markerHeight="6" orient="auto"><path d="M 0 0 L 10 5 L 0 10 z"/></marker></defs></g><g class="edge"><path class="path" style="fill: none;" marker-end="url(#arrowhead134)" d="M52.20000076293945,81.875L54.283334096272775,81.87499999999999C56.36666742960611,81.875,60.53333409627278,81.875,64.70000076293945,81.87499999999999C68.86666742960611,81.875,73.03333409627278,81.875,75.11666742960611,81.87499999999999L77.20000076293945,81.875"/><defs><marker id="arrowhead134" viewBox="0 0 10 10" refX="9" refY="5" markerUnits="strokeWidth" markerWidth="8" markerHeight="6" orient="auto"><path d="M 0 0 L 10 5 L 0 10 z"/></marker></defs></g><g class="edge"><path class="path" style="fill: none;" marker-end="url(#arrowhead135)" d="M205.50000190734863,145L207.58333524068192,144.99999999999997C209.66666857401526,145,213.83333524068195,145,218.00000190734863,144.99999999999997C222.1666685740153,145,226.33333524068195,145,228.4166685740153,144.99999999999997L230.50000190734863,145"/><defs><marker id="arrowhead135" viewBox="0 0 10 10" refX="9" refY="5" markerUnits="strokeWidth" markerWidth="8" markerHeight="6" orient="auto"><path d="M 0 0 L 10 5 L 0 10 z"/></marker></defs></g><g class="edge"><path class="path" style="fill: none;" marker-end="url(#arrowhead136)" d="M308.65833568573,18.75L317.4152801831563,18.75C326.17222468058264,18.75,343.68611367543537,18.75,356.4428573730886,26.031537797418295C369.1996010707419,33.31307559483659,377.19919947119564,47.87615118967318,381.1989986714226,55.157688987091475L385.19879787164945,62.43922678450977"/><defs><marker id="arrowhead136" viewBox="0 0 10 10" refX="9" refY="5" markerUnits="strokeWidth" markerWidth="8" markerHeight="6" orient="auto"><path d="M 0 0 L 10 5 L 0 10 z"/></marker></defs></g><g class="edge"><path class="path" style="fill: none;" marker-end="url(#arrowhead137)" d="M348.7000026702881,145L350.7833360036214,144.99999999999997C352.8666693369547,145,357.0333360036214,145,363.1164685371816,137.7184622025817C369.1996010707419,130.43692440516338,377.19919947119564,115.8738488103268,381.1989986714226,108.59231101290851L385.19879787164945,101.31077321549023"/><defs><marker id="arrowhead137" viewBox="0 0 10 10" refX="9" refY="5" markerUnits="strokeWidth" markerWidth="8" markerHeight="6" orient="auto"><path d="M 0 0 L 10 5 L 0 10 z"/></marker></defs></g></g></g><style xmlns="http://www.w3.org/1999/xhtml">.node &gt; .shape {stroke: #555555;stroke-width: 0.6px;fill: #FFFFFF;} path {stroke: #555;background-color: #555;stroke-width: 1px;} .node.state.NotYetStarted &gt; .shape,.node.state.Container &gt; .shape {stroke-dasharray: 5 2;} .node.state.Failed &gt; .shape,rect.legend.Failed {fill: #DE322F;} .node.state.CaughtError &gt; .shape,rect.legend.CaughtError {fill: #FFA500;} .node.state.Succeeded &gt; .shape,rect.legend.Succeeded {fill: #2BD62E;} .node.state.InProgress &gt; .shape,rect.legend.InProgress {fill: #53c9ed;} .node.state.Cancelled &gt; .shape,rect.legend.Cancelled {fill: #dddddd;} .node.anchor &gt; .shape {fill: #FFDA75;} .node.state.hovered:not(.selected):not(.NotYetStarted) &gt; .shape,.node.selected &gt; .shape {stroke: #555555;stroke-width: 2px;} .node.state.Container.Failed &gt; .shape {fill: #EE9592;} .node.state.Container.CaughtError &gt; .shape {fill: #FFD27F;} .node.state.Container.Succeeded &gt; .shape {fill: #91EA9A;} .node.state.Container.InProgress &gt; .shape {fill :#A9E4F7;} .node.state.Container.Cancelled &gt; .shape {fill: #EEEEEE;} marker {fill: #555555;} .node.anchor,.node.state.NotYetStarted {cursor: default;} .node.state {cursor: pointer;} tspan .label {font-weight: normal;font-size: 12px;text-shadow: none;} </style></svg>